<?xml version="1.0" encoding="utf-8"?>
<!-- Generator: Adobe Illustrator 27.5.0, SVG Export Plug-In . SVG Version: 6.00 Build 0)  -->
<svg version="1.1" id="Layer_1" xmlns="http://www.w3.org/2000/svg" xmlns:xlink="http://www.w3.org/1999/xlink" x="0px" y="0px"
	 viewBox="0 0 337.99 208.5" style="enable-background:new 0 0 337.99 208.5;" xml:space="preserve">
<g>
	<g>
		<path style="fill:#FFFFFF;" d="M332.913,129.849c0.041-9.634-8.946-18.16-26.794-25.374c-0.01-0.004-0.095-0.038-0.105-0.042
			c-1.827-0.735-3.748-1.457-5.709-2.146c-0.018-0.007-0.037-0.014-0.057-0.021c-0.963-0.337-1.946-0.671-2.935-0.997l-0.25-0.082
			c-2.045-0.673-4.205-1.339-6.418-1.979c0,0-0.097-0.027-0.101-0.028c-1.05-0.303-2.118-0.603-3.2-0.896l-0.322-0.089
			c-2.261-0.612-4.624-1.215-7.005-1.785l-0.246-0.059c-1.11-0.266-2.235-0.527-3.385-0.785l-0.429-0.098
			c-0.221-0.05-0.442-0.1-0.664-0.149c-0.02-0.103-0.037-0.207-0.058-0.311l-0.182-0.957c-0.137-0.705-0.28-1.406-0.431-2.108
			l-0.185-0.859c-0.207-0.919-0.422-1.834-0.65-2.743c-0.007-0.024-0.028-0.115-0.035-0.14c-0.248-0.981-0.512-1.955-0.789-2.927
			l-0.193-0.657c-0.216-0.739-0.438-1.476-0.668-2.209l-0.265-0.821c-0.23-0.71-0.468-1.417-0.709-2.104l-0.256-0.737
			c-0.322-0.904-0.653-1.804-0.98-2.648c-0.007-0.017-0.03-0.08-0.037-0.098c-0.37-0.952-0.754-1.897-1.148-2.828l-0.186-0.43
			c-0.329-0.769-0.666-1.534-1.014-2.297l-0.296-0.641c-0.333-0.72-0.674-1.433-1.028-2.152l-0.268-0.548
			c-0.904-1.811-1.862-3.6-2.84-5.306l-0.106-0.185c-0.459-0.797-0.93-1.587-1.41-2.374l-0.285-0.463
			c-0.444-0.719-0.896-1.433-1.352-2.127l-0.263-0.406c-1.653-2.51-3.436-4.979-5.284-7.321l-0.253-0.317
			c-0.557-0.7-1.122-1.394-1.688-2.069l-0.232-0.278c-1.955-2.317-4.033-4.575-6.143-6.674l-0.205-0.204
			c-0.67-0.664-1.348-1.318-2.013-1.942l-0.203-0.192c-2.238-2.092-4.588-4.102-6.982-5.976l-0.109-0.085
			c-0.769-0.6-1.544-1.188-2.329-1.765c-0.012-0.009-0.067-0.051-0.079-0.06c-0.009-0.005-0.072-0.053-0.08-0.059
			c-17.806-13.056-38.872-19.957-60.926-19.957c-30.511,0-59.358,13.489-79.176,37.042c-2.869,3.413-5.545,7.041-7.988,10.839
			c-0.77,1.198-1.536,2.448-2.274,3.709l-0.134,0.229c-0.724,1.244-1.428,2.512-2.105,3.791l-0.093,0.179
			c-2.057,3.913-3.884,7.997-5.433,12.146l-0.132,0.353c-0.47,1.271-0.932,2.604-1.368,3.953l-0.163,0.506
			c-0.447,1.4-0.838,2.715-1.188,3.989l-0.122,0.455c-0.414,1.527-0.76,2.91-1.059,4.227c-0.005,0.023-0.011,0.047-0.015,0.07
			c-0.201,0.888-0.392,1.792-0.577,2.73c-51.036,10.091-61.939,24.467-61.984,34.847c-0.003,0.436,0.018,0.888,0.061,1.375
			c0.001,0.017,0.003,0.035,0.005,0.053c-0.036,0.425-0.056,0.831-0.057,1.23c-0.003,0.548,0.027,1.125,0.091,1.756
			c0.015,0.159,0.037,0.321,0.069,0.554c0.053,0.405,0.118,0.814,0.196,1.211c0.041,0.208,0.087,0.418,0.133,0.618
			c0.09,0.398,0.197,0.798,0.312,1.19l0.026,0.096c0.046,0.161,0.092,0.323,0.139,0.467c0.161,0.508,0.342,1.019,0.545,1.536
			c0.023,0.063,0.051,0.138,0.07,0.186c0.227,0.564,0.483,1.136,0.754,1.699c0.066,0.143,0.141,0.287,0.214,0.432l0.045,0.088
			c0.204,0.405,0.417,0.814,0.637,1.208c0.108,0.195,0.219,0.39,0.337,0.593c0.229,0.396,0.472,0.795,0.725,1.197l0.325,0.517
			c0.342,0.525,0.702,1.056,1.067,1.567c0.019,0.027,0.071,0.103,0.092,0.131c0.411,0.572,0.847,1.149,1.298,1.726l0.337,0.418
			c0.35,0.436,0.709,0.876,1.076,1.309l0.451,0.525c0.373,0.429,0.757,0.859,1.155,1.294l0.403,0.441
			c0.521,0.561,1.059,1.122,1.618,1.689c0.011,0.012,0.022,0.023,0.035,0.035c0.59,0.596,1.205,1.194,1.816,1.772l0.309,0.291
			c0.525,0.492,1.063,0.986,1.619,1.485l0.453,0.4c0.535,0.475,1.083,0.949,1.644,1.425l0.41,0.347
			c1.438,1.208,2.951,2.416,4.476,3.572l0.063,0.046c0.026,0.021,0.053,0.041,0.08,0.063c0.734,0.556,1.486,1.11,2.245,1.661
			l0.412,0.296c0.714,0.513,1.44,1.026,2.17,1.529l0.357,0.247c2.61,1.794,5.4,3.586,8.31,5.334l0.286,0.172
			c0.892,0.534,1.799,1.066,2.689,1.579l0.306,0.175c3.076,1.764,6.311,3.499,9.601,5.151l0.227,0.112
			c1.054,0.528,2.122,1.052,3.204,1.572c0.008,0.004,0.094,0.045,0.101,0.048l0.126,0.062c3.486,1.669,7.119,3.293,10.813,4.831
			l0.17,0.07c1.174,0.488,2.362,0.972,3.577,1.453l0.258,0.103c25.114,9.932,52.846,16.018,80.208,17.599l0.249,0.015
			c2.003,0.114,4.071,0.206,6.148,0.274l0.961,0.027c2.351,0.067,4.306,0.102,6.149,0.11l1.118,0.003c0.003,0-0.001,0,0.002,0
			c52.835,0,93.144-16.237,112.464-25.915c29.802-14.928,48.353-32.921,48.417-46.954c0.001-0.486-0.021-0.981-0.065-1.477
			C332.892,130.614,332.911,130.225,332.913,129.849z"/>
		<path style="fill:#F1F1F1;" d="M332.526,129.283c0.042-9.633-8.947-18.16-26.794-25.374c-0.011-0.004-0.095-0.038-0.105-0.042
			c-1.838-0.704-3.746-1.457-5.707-2.146c-0.02-0.007-0.038-0.013-0.058-0.021c-0.955-0.357-1.947-0.67-2.936-0.997l-0.25-0.082
			c-2.045-0.673-4.204-1.339-6.417-1.979c-0.004-0.002-0.097-0.028-0.101-0.029c-1.05-0.302-2.118-0.603-3.2-0.896l-0.322-0.089
			c-2.261-0.612-4.623-1.214-7.006-1.785l-0.245-0.059c-1.111-0.266-2.236-0.526-3.385-0.785l-0.428-0.097
			c-0.221-0.051-0.443-0.101-0.666-0.15c-0.02-0.103-0.036-0.207-0.056-0.31l-0.184-0.957c-0.136-0.706-0.28-1.406-0.43-2.109
			l-0.185-0.858c-0.207-0.919-0.401-1.839-0.649-2.743c-0.006-0.025-0.029-0.116-0.035-0.141c-0.273-0.975-0.513-1.955-0.788-2.927
			l-0.194-0.657c-0.217-0.739-0.438-1.475-0.668-2.209l-0.265-0.821c-0.23-0.71-0.468-1.417-0.708-2.104l-0.256-0.736
			c-0.323-0.905-0.634-1.813-0.981-2.649c-0.008-0.017-0.03-0.079-0.038-0.098c-0.382-0.945-0.753-1.897-1.148-2.827l-0.186-0.432
			c-0.327-0.768-0.666-1.533-1.013-2.296l-0.295-0.642c-0.334-0.718-0.675-1.432-1.029-2.151l-0.27-0.548
			c-0.904-1.81-1.861-3.6-2.838-5.306l-0.108-0.185c-0.458-0.797-0.929-1.587-1.409-2.373l-0.285-0.464
			c-0.444-0.72-0.896-1.432-1.351-2.127l-0.264-0.406c-1.654-2.511-3.436-4.979-5.284-7.321l-0.254-0.317
			c-0.556-0.7-1.121-1.394-1.688-2.068l-0.232-0.278c-1.956-2.318-4.033-4.575-6.142-6.675l-0.206-0.203
			c-0.67-0.665-1.349-1.319-2.013-1.943l-0.204-0.191c-2.238-2.093-4.586-4.103-6.982-5.976l-0.108-0.085
			c-0.769-0.599-1.564-1.164-2.329-1.765c-0.012-0.009-0.067-0.051-0.079-0.059c-0.009-0.005-0.072-0.053-0.079-0.058
			C215.396,16.347,194.8,8.776,172.747,8.776c-30.511,0-59.359,13.49-79.176,37.042c-2.868,3.414-5.546,7.041-7.987,10.839
			c-0.771,1.198-1.538,2.448-2.275,3.709l-0.135,0.229c-0.723,1.245-1.427,2.512-2.104,3.791l-0.093,0.179
			c-2.057,3.913-3.883,7.998-5.433,12.146l-0.132,0.354c-0.47,1.271-0.933,2.604-1.369,3.952l-0.162,0.507
			c-0.447,1.399-0.839,2.714-1.188,3.989l-0.122,0.454c-0.415,1.527-0.803,2.902-1.06,4.227c-0.005,0.023-0.009,0.047-0.014,0.07
			c-0.173,0.894-0.394,1.793-0.578,2.731c-51.035,10.089-61.915,24.467-61.983,34.845c-0.003,0.438,0.018,0.889,0.062,1.376
			c0.001,0.017,0.003,0.035,0.004,0.053c-0.035,0.426-0.054,0.832-0.056,1.23c-0.004,0.549,0.028,1.125,0.091,1.756
			c0.016,0.16,0.038,0.32,0.069,0.555c0.054,0.405,0.118,0.813,0.196,1.21c0.041,0.208,0.087,0.418,0.133,0.618
			c0.091,0.397,0.197,0.799,0.311,1.189l0.026,0.097c0.046,0.161,0.094,0.324,0.139,0.467c0.163,0.507,0.348,1.016,0.545,1.536
			c0.023,0.063,0.051,0.138,0.071,0.186c0.226,0.564,0.484,1.135,0.753,1.699c0.067,0.142,0.14,0.286,0.213,0.431l0.047,0.089
			c0.202,0.404,0.418,0.813,0.636,1.208c0.107,0.193,0.219,0.389,0.336,0.592c0.229,0.396,0.472,0.796,0.726,1.197l0.326,0.517
			c0.342,0.525,0.704,1.053,1.065,1.567c0.019,0.027,0.072,0.104,0.092,0.131c0.412,0.573,0.847,1.149,1.3,1.727l0.336,0.418
			c0.349,0.437,0.709,0.876,1.075,1.307l0.453,0.527c0.371,0.429,0.755,0.858,1.154,1.294l0.402,0.44
			c0.521,0.561,1.058,1.124,1.619,1.689c0.012,0.012,0.022,0.023,0.035,0.036c0.581,0.605,1.204,1.192,1.816,1.772l0.312,0.291
			c0.523,0.491,1.063,0.985,1.617,1.484l0.454,0.401c0.534,0.474,1.084,0.949,1.643,1.424l0.41,0.348
			c1.438,1.207,2.951,2.415,4.475,3.571l0.063,0.046c0.027,0.021,0.055,0.042,0.081,0.063c0.729,0.563,1.487,1.11,2.245,1.661
			l0.412,0.297c0.713,0.512,1.439,1.025,2.169,1.528l0.357,0.247c2.61,1.793,5.401,3.586,8.31,5.334l0.287,0.172
			c0.892,0.535,1.798,1.066,2.689,1.579l0.306,0.175c3.075,1.764,6.312,3.5,9.6,5.151l0.226,0.112
			c1.054,0.529,2.142,1.015,3.206,1.572c0.007,0.004,0.092,0.044,0.1,0.049L62,180.32c3.486,1.671,7.118,3.294,10.813,4.832
			l0.169,0.071c1.176,0.488,2.363,0.97,3.578,1.452l0.257,0.103c25.115,9.932,52.848,16.018,80.209,17.599l0.249,0.015
			c2.003,0.113,4.071,0.206,6.148,0.274l0.96,0.027c2.353,0.067,4.307,0.103,6.149,0.11l1.118,0.003h0.003
			c52.835,0,93.144-16.237,112.464-25.915c29.802-14.928,48.354-32.92,48.417-46.954c0.002-0.486-0.02-0.98-0.066-1.478
			C332.506,130.05,332.524,129.659,332.526,129.283z"/>
		<path style="fill:#E2E2E2;" d="M332.14,128.719c0.042-9.634-8.945-18.16-26.793-25.374c-0.011-0.005-0.095-0.039-0.105-0.042
			c-1.84-0.704-3.747-1.457-5.708-2.146c-0.02-0.007-0.038-0.014-0.058-0.021c-0.967-0.329-1.947-0.672-2.934-0.997l-0.25-0.083
			c-2.047-0.672-4.205-1.338-6.418-1.979c-0.006-0.001-0.098-0.027-0.098-0.027c-1.055-0.304-2.122-0.604-3.204-0.898l-0.321-0.088
			c-2.263-0.612-4.625-1.215-7.006-1.785l-0.246-0.059c-1.11-0.266-2.235-0.527-3.386-0.786l-0.427-0.097
			c-0.222-0.05-0.442-0.1-0.666-0.149c-0.018-0.103-0.037-0.207-0.056-0.311l-0.182-0.958c-0.138-0.704-0.281-1.405-0.432-2.107
			l-0.186-0.86c-0.205-0.918-0.397-1.84-0.648-2.742c-0.007-0.024-0.029-0.115-0.035-0.14c-0.239-0.984-0.513-1.955-0.789-2.928
			l-0.194-0.656c-0.215-0.739-0.438-1.475-0.668-2.209l-0.266-0.821c-0.228-0.71-0.468-1.417-0.708-2.104l-0.256-0.737
			c-0.323-0.904-0.652-1.805-0.98-2.648c-0.007-0.017-0.03-0.08-0.037-0.098c-0.369-0.952-0.754-1.897-1.149-2.828l-0.185-0.431
			c-0.329-0.769-0.665-1.533-1.014-2.296l-0.295-0.642c-0.334-0.719-0.675-1.432-1.029-2.151l-0.27-0.548
			c-0.902-1.811-1.86-3.6-2.839-5.306l-0.107-0.185c-0.458-0.797-0.93-1.587-1.41-2.374l-0.285-0.463
			c-0.445-0.72-0.896-1.433-1.352-2.127l-0.263-0.406c-1.653-2.511-3.436-4.979-5.284-7.321l-0.253-0.317
			c-0.557-0.7-1.122-1.393-1.688-2.069l-0.234-0.278c-1.954-2.318-4.032-4.575-6.142-6.675l-0.205-0.203
			c-0.67-0.664-1.348-1.318-2.014-1.943l-0.202-0.191c-2.238-2.092-4.587-4.103-6.982-5.976l-0.11-0.086
			c-0.768-0.6-1.546-1.183-2.328-1.765c-0.012-0.008-0.068-0.05-0.079-0.059c-0.009-0.006-0.072-0.053-0.079-0.059
			C215.989,14.446,194.413,8.212,172.36,8.212c-30.511,0-59.359,13.489-79.175,37.042c-2.869,3.413-5.546,7.041-7.988,10.839
			c-0.771,1.198-1.536,2.448-2.274,3.709l-0.135,0.229c-0.724,1.244-1.428,2.511-2.104,3.791l-0.094,0.179
			c-2.056,3.912-3.883,7.997-5.432,12.146l-0.133,0.352c-0.469,1.271-0.932,2.605-1.368,3.954l-0.163,0.506
			c-0.446,1.4-0.839,2.715-1.188,3.989l-0.121,0.454c-0.415,1.528-0.776,2.907-1.058,4.228c-0.005,0.023-0.011,0.047-0.016,0.069
			c-0.194,0.891-0.393,1.793-0.577,2.731c-51.036,10.09-61.916,24.467-61.984,34.846c-0.003,0.437,0.017,0.889,0.061,1.376
			c0.002,0.017,0.004,0.035,0.006,0.053c-0.036,0.425-0.055,0.831-0.057,1.23c-0.003,0.548,0.029,1.125,0.091,1.756
			c0.016,0.158,0.039,0.32,0.07,0.554c0.054,0.405,0.117,0.813,0.196,1.211c0.04,0.208,0.086,0.417,0.132,0.618
			c0.091,0.397,0.196,0.798,0.313,1.189l0.026,0.096c0.044,0.162,0.093,0.324,0.138,0.468c0.163,0.506,0.346,1.017,0.544,1.536
			c0.023,0.063,0.052,0.138,0.071,0.186c0.229,0.564,0.485,1.135,0.754,1.699c0.067,0.143,0.142,0.287,0.214,0.432l0.045,0.088
			c0.204,0.405,0.42,0.813,0.638,1.207c0.106,0.194,0.218,0.391,0.335,0.594c0.229,0.396,0.473,0.795,0.725,1.197l0.327,0.516
			c0.342,0.526,0.712,1.05,1.066,1.568c0.019,0.027,0.071,0.104,0.091,0.131c0.411,0.572,0.848,1.149,1.299,1.725l0.337,0.418
			c0.349,0.437,0.709,0.876,1.076,1.308l0.451,0.526c0.373,0.429,0.756,0.858,1.155,1.294l0.404,0.441
			c0.521,0.561,1.068,1.112,1.617,1.689c0.011,0.012,0.023,0.023,0.035,0.035c0.592,0.595,1.205,1.193,1.816,1.772l0.311,0.291
			c0.524,0.492,1.063,0.986,1.619,1.485l0.451,0.4c0.535,0.475,1.084,0.949,1.645,1.425l0.41,0.347
			c1.438,1.208,2.951,2.415,4.476,3.572l0.063,0.045c0.027,0.022,0.054,0.042,0.08,0.063c0.73,0.563,1.487,1.111,2.245,1.662
			l0.412,0.295c0.713,0.514,1.44,1.027,2.17,1.53l0.356,0.247c2.61,1.793,5.401,3.586,8.311,5.334l0.286,0.172
			c0.893,0.534,1.799,1.066,2.689,1.579l0.308,0.175c3.074,1.763,6.311,3.498,9.601,5.151l0.225,0.112
			c1.055,0.528,2.115,1.068,3.205,1.572c0.009,0.004,0.093,0.044,0.102,0.048l0.126,0.061c3.485,1.669,7.117,3.294,10.811,4.832
			l0.17,0.07c1.175,0.488,2.362,0.971,3.578,1.453l0.258,0.103c25.112,9.932,52.845,16.018,80.207,17.598l0.249,0.016
			c2.002,0.113,4.071,0.205,6.149,0.273l0.959,0.027c2.352,0.068,4.308,0.104,6.151,0.111l1.116,0.003h0.002
			c52.837,0,93.145-16.237,112.465-25.915c29.802-14.929,48.354-32.921,48.417-46.954c0.002-0.486-0.021-0.981-0.066-1.478
			C332.119,129.483,332.137,129.095,332.14,128.719z"/>
		<path style="fill:#D4D4D4;" d="M331.753,128.153c0.042-9.634-8.946-18.16-26.794-25.373c-0.01-0.006-0.095-0.04-0.106-0.043
			c-1.838-0.704-3.747-1.457-5.708-2.147c-0.019-0.006-0.038-0.013-0.057-0.019c-0.971-0.315-1.946-0.673-2.934-0.998l-0.25-0.083
			c-2.046-0.671-4.206-1.338-6.419-1.978c0,0-0.097-0.026-0.101-0.028c-1.05-0.304-2.119-0.603-3.2-0.896l-0.321-0.089
			c-2.263-0.613-4.625-1.215-7.006-1.784l-0.247-0.06c-1.109-0.266-2.235-0.526-3.384-0.786l-0.429-0.097
			c-0.221-0.05-0.442-0.1-0.665-0.149c-0.019-0.104-0.037-0.207-0.057-0.311l-0.182-0.957c-0.137-0.704-0.28-1.406-0.432-2.108
			l-0.185-0.86c-0.206-0.919-0.402-1.838-0.648-2.741c-0.007-0.025-0.029-0.116-0.036-0.14c-0.261-0.979-0.513-1.956-0.789-2.929
			l-0.193-0.656c-0.215-0.739-0.438-1.476-0.669-2.209l-0.264-0.821c-0.23-0.71-0.468-1.417-0.709-2.104l-0.256-0.737
			c-0.323-0.904-0.653-1.805-0.981-2.648c-0.006-0.018-0.03-0.08-0.037-0.098c-0.369-0.951-0.754-1.897-1.147-2.828l-0.186-0.431
			c-0.329-0.769-0.666-1.533-1.014-2.296l-0.296-0.642c-0.333-0.719-0.674-1.432-1.028-2.151l-0.27-0.548
			c-0.902-1.81-1.861-3.599-2.839-5.306l-0.105-0.185c-0.459-0.797-0.931-1.587-1.411-2.374l-0.286-0.463
			c-0.444-0.72-0.896-1.433-1.351-2.126l-0.263-0.407c-1.653-2.511-3.435-4.98-5.284-7.321l-0.253-0.317
			c-0.558-0.7-1.123-1.393-1.688-2.069l-0.233-0.278c-1.955-2.317-4.034-4.575-6.142-6.675l-0.205-0.203
			c-0.67-0.664-1.349-1.317-2.014-1.943l-0.202-0.191c-2.237-2.092-4.588-4.102-6.983-5.975l-0.11-0.086
			c-0.768-0.601-1.519-1.221-2.328-1.766c-0.012-0.008-0.068-0.049-0.079-0.059c-0.009-0.006-0.072-0.053-0.08-0.059
			c-17.734-13.151-38.873-19.957-60.925-19.957c-30.512,0-59.359,13.489-79.177,37.042c-2.869,3.413-5.545,7.041-7.988,10.839
			c-0.77,1.199-1.536,2.449-2.274,3.709L82.4,59.466c-0.724,1.244-1.427,2.512-2.104,3.791l-0.093,0.18
			c-2.057,3.912-3.884,7.997-5.433,12.146l-0.133,0.353c-0.469,1.271-0.931,2.605-1.367,3.953l-0.163,0.507
			c-0.447,1.4-0.839,2.715-1.188,3.988l-0.122,0.454c-0.415,1.528-0.781,2.907-1.058,4.228c-0.005,0.024-0.011,0.047-0.016,0.069
			c-0.193,0.891-0.392,1.793-0.576,2.731c-51.036,10.09-61.938,24.467-61.984,34.846c-0.003,0.436,0.017,0.89,0.061,1.376
			c0.001,0.017,0.003,0.035,0.005,0.054c-0.035,0.424-0.055,0.83-0.057,1.23c-0.003,0.548,0.028,1.125,0.09,1.755
			c0.017,0.16,0.039,0.321,0.07,0.555c0.055,0.405,0.117,0.814,0.196,1.211c0.041,0.208,0.086,0.418,0.133,0.618
			c0.091,0.397,0.197,0.799,0.312,1.189L9,134.794c0.046,0.163,0.093,0.324,0.139,0.467c0.163,0.508,0.349,1.016,0.544,1.537
			c0.024,0.063,0.052,0.137,0.071,0.186c0.23,0.564,0.482,1.136,0.753,1.7c0.067,0.142,0.143,0.286,0.215,0.43l0.045,0.09
			c0.204,0.404,0.419,0.812,0.637,1.206c0.107,0.194,0.218,0.391,0.335,0.594c0.231,0.396,0.474,0.794,0.726,1.197l0.326,0.516
			c0.343,0.526,0.711,1.051,1.066,1.568c0.02,0.028,0.072,0.103,0.091,0.131c0.407,0.575,0.85,1.149,1.3,1.726l0.337,0.419
			c0.35,0.436,0.709,0.875,1.076,1.307l0.451,0.527c0.373,0.428,0.756,0.858,1.155,1.294l0.403,0.441
			c0.52,0.561,1.056,1.123,1.618,1.688c0.011,0.012,0.022,0.022,0.034,0.036c0.581,0.605,1.205,1.193,1.817,1.771l0.31,0.292
			c0.525,0.491,1.063,0.984,1.619,1.485l0.453,0.399c0.534,0.476,1.083,0.949,1.642,1.425l0.41,0.347
			c1.438,1.208,2.952,2.415,4.478,3.572l0.063,0.046c0.025,0.021,0.052,0.042,0.079,0.063c0.734,0.556,1.487,1.11,2.245,1.661
			l0.411,0.296c0.714,0.513,1.44,1.027,2.17,1.529l0.357,0.248c2.609,1.792,5.4,3.585,8.31,5.333l0.287,0.172
			c0.893,0.535,1.799,1.066,2.69,1.579l0.306,0.175c3.076,1.763,6.311,3.498,9.601,5.151l0.226,0.112
			c1.054,0.528,2.127,1.043,3.205,1.572c0.008,0.004,0.093,0.044,0.101,0.048l0.127,0.061c3.485,1.669,7.118,3.294,10.812,4.832
			l0.169,0.071c1.175,0.487,2.362,0.97,3.578,1.452l0.259,0.103c25.112,9.932,52.845,16.017,80.207,17.599l0.249,0.015
			c2.002,0.113,4.071,0.205,6.148,0.273l0.961,0.027c2.351,0.068,4.306,0.104,6.149,0.111l1.117,0.003c0.003,0-0.001,0-0.001,0
			c52.84,0,93.148-16.237,112.468-25.915c29.802-14.929,48.354-32.921,48.416-46.954c0.002-0.486-0.02-0.98-0.065-1.478
			C331.732,128.918,331.751,128.529,331.753,128.153z"/>
		<path style="fill:#C5C5C5;" d="M331.367,127.589c0.041-9.634-8.946-18.16-26.795-25.374c-0.01-0.005-0.095-0.039-0.104-0.043
			c-1.839-0.703-3.742-1.473-5.708-2.146c-0.02-0.006-0.037-0.013-0.058-0.02c-0.966-0.33-1.946-0.672-2.935-0.997l-0.25-0.083
			c-2.045-0.673-4.205-1.338-6.418-1.978c-0.005-0.001-0.097-0.027-0.101-0.028c-1.05-0.304-2.117-0.603-3.2-0.897l-0.321-0.088
			c-2.262-0.613-4.625-1.216-7.006-1.785l-0.246-0.06c-1.11-0.264-2.235-0.526-3.385-0.785l-0.429-0.098
			c-0.221-0.048-0.442-0.1-0.664-0.148c-0.02-0.104-0.037-0.207-0.058-0.311l-0.181-0.958c-0.137-0.704-0.281-1.405-0.432-2.107
			l-0.184-0.86c-0.208-0.919-0.394-1.841-0.65-2.742c-0.007-0.023-0.029-0.115-0.036-0.141c-0.256-0.979-0.512-1.955-0.789-2.926
			l-0.192-0.657c-0.217-0.739-0.438-1.476-0.669-2.209l-0.265-0.821c-0.23-0.71-0.468-1.417-0.709-2.104l-0.256-0.737
			c-0.322-0.904-0.666-1.8-0.98-2.648c-0.006-0.017-0.03-0.081-0.037-0.098c-0.369-0.952-0.754-1.897-1.147-2.828l-0.187-0.431
			c-0.329-0.77-0.666-1.532-1.014-2.296l-0.296-0.642c-0.333-0.719-0.674-1.432-1.028-2.152l-0.269-0.547
			c-0.904-1.811-1.862-3.6-2.84-5.306l-0.106-0.185c-0.459-0.797-0.93-1.587-1.409-2.374l-0.286-0.464
			c-0.444-0.718-0.896-1.432-1.352-2.126l-0.262-0.406c-1.654-2.511-3.436-4.979-5.285-7.322l-0.253-0.316
			c-0.557-0.699-1.122-1.394-1.689-2.069l-0.232-0.278c-1.955-2.318-4.033-4.575-6.143-6.675l-0.204-0.203
			c-0.671-0.664-1.349-1.319-2.014-1.943l-0.203-0.192c-2.238-2.091-4.588-4.101-6.981-5.975l-0.109-0.086
			c-0.77-0.6-1.527-1.212-2.329-1.765c-0.013-0.009-0.067-0.05-0.079-0.059c-0.01-0.006-0.072-0.053-0.08-0.059
			c-17.735-13.153-38.873-19.957-60.926-19.957c-30.512,0-59.359,13.489-79.177,37.042c-2.869,3.413-5.545,7.042-7.988,10.839
			c-0.77,1.198-1.535,2.448-2.274,3.709l-0.134,0.229c-0.724,1.243-1.427,2.511-2.105,3.791l-0.093,0.179
			c-2.056,3.912-3.884,7.997-5.432,12.146l-0.132,0.353c-0.471,1.271-0.933,2.605-1.368,3.955l-0.164,0.505
			c-0.447,1.4-0.838,2.715-1.188,3.989l-0.122,0.454c-0.413,1.529-0.777,2.907-1.059,4.227c-0.005,0.024-0.01,0.048-0.015,0.07
			c-0.176,0.895-0.392,1.792-0.577,2.731c-51.036,10.09-61.915,24.467-61.983,34.847c-0.003,0.435,0.017,0.888,0.061,1.376
			c0.002,0.016,0.003,0.033,0.006,0.052c-0.036,0.424-0.056,0.831-0.057,1.23c-0.003,0.548,0.03,1.124,0.091,1.755
			c0.015,0.159,0.037,0.321,0.069,0.555c0.056,0.404,0.118,0.813,0.195,1.21c0.041,0.209,0.087,0.418,0.133,0.62
			c0.091,0.396,0.197,0.797,0.311,1.189l0.027,0.096c0.045,0.162,0.092,0.324,0.139,0.467c0.164,0.507,0.347,1.017,0.544,1.538
			c0.024,0.063,0.051,0.136,0.07,0.184c0.229,0.564,0.484,1.135,0.754,1.699c0.066,0.142,0.142,0.287,0.214,0.431l0.045,0.089
			c0.204,0.405,0.417,0.814,0.637,1.207c0.108,0.195,0.22,0.391,0.338,0.594c0.229,0.395,0.472,0.794,0.724,1.197l0.325,0.517
			c0.343,0.525,0.706,1.053,1.067,1.567c0.018,0.027,0.072,0.104,0.093,0.13c0.422,0.564,0.847,1.15,1.297,1.727l0.337,0.418
			c0.35,0.437,0.709,0.876,1.076,1.308l0.451,0.525c0.374,0.43,0.756,0.859,1.156,1.294l0.403,0.442
			c0.521,0.56,1.068,1.111,1.618,1.688c0.01,0.012,0.021,0.022,0.034,0.035c0.591,0.596,1.205,1.193,1.816,1.773l0.31,0.291
			c0.525,0.492,1.063,0.985,1.619,1.485l0.453,0.4c0.536,0.475,1.083,0.949,1.645,1.425l0.409,0.347
			c1.438,1.207,2.951,2.415,4.477,3.572l0.063,0.045c0.025,0.021,0.053,0.042,0.079,0.063c0.729,0.563,1.487,1.111,2.245,1.663
			l0.413,0.294c0.713,0.514,1.439,1.027,2.169,1.53l0.356,0.247c2.61,1.793,5.401,3.585,8.312,5.334l0.285,0.172
			c0.894,0.534,1.799,1.066,2.689,1.579l0.306,0.175c3.076,1.763,6.311,3.498,9.601,5.152l0.228,0.11
			c1.054,0.529,2.152,0.994,3.203,1.573c0.008,0.004,0.094,0.044,0.101,0.048l0.127,0.061c3.485,1.669,7.118,3.294,10.811,4.832
			l0.17,0.07c1.174,0.487,2.362,0.971,3.577,1.454l0.259,0.102c25.113,9.932,52.845,16.017,80.207,17.598l0.25,0.016
			c2.002,0.113,4.07,0.205,6.147,0.273l0.961,0.027c2.351,0.068,4.306,0.104,6.149,0.111l1.118,0.004h0.002
			c52.835,0,93.145-16.238,112.464-25.917c29.802-14.928,48.354-32.92,48.417-46.954c0.001-0.485-0.021-0.982-0.065-1.477
			C331.346,128.354,331.365,127.965,331.367,127.589z"/>
		<path style="fill:#B7B7B7;" d="M330.98,127.023c0.042-9.634-8.947-18.16-26.794-25.373c-0.01-0.005-0.095-0.039-0.104-0.043
			c-1.826-0.734-3.747-1.457-5.708-2.146c-0.02-0.007-0.038-0.013-0.058-0.02c-0.964-0.337-1.947-0.672-2.935-0.998l-0.25-0.082
			c-2.046-0.673-4.206-1.339-6.418-1.979c-0.004-0.001-0.097-0.027-0.097-0.027c-1.054-0.305-2.122-0.604-3.204-0.898l-0.322-0.088
			c-2.262-0.613-4.624-1.216-7.006-1.786l-0.246-0.059c-1.11-0.265-2.235-0.526-3.384-0.785l-0.428-0.097
			c-0.222-0.05-0.443-0.101-0.666-0.149c-0.019-0.104-0.037-0.208-0.056-0.311l-0.183-0.957c-0.137-0.706-0.28-1.406-0.432-2.108
			l-0.185-0.86c-0.206-0.919-0.402-1.839-0.649-2.741c-0.006-0.025-0.029-0.116-0.035-0.142c-0.273-0.975-0.512-1.955-0.789-2.927
			l-0.193-0.656c-0.216-0.74-0.439-1.476-0.668-2.209l-0.266-0.821c-0.229-0.711-0.468-1.417-0.708-2.105l-0.256-0.736
			c-0.322-0.905-0.675-1.797-0.981-2.648c-0.006-0.018-0.03-0.081-0.036-0.098c-0.347-0.961-0.754-1.897-1.149-2.829l-0.185-0.43
			c-0.329-0.77-0.667-1.533-1.014-2.296l-0.295-0.642c-0.334-0.719-0.675-1.433-1.029-2.152l-0.27-0.547
			c-0.903-1.81-1.861-3.6-2.839-5.306l-0.106-0.186c-0.458-0.796-0.931-1.586-1.41-2.373l-0.285-0.464
			c-0.445-0.719-0.896-1.432-1.351-2.126l-0.264-0.407c-1.654-2.51-3.436-4.979-5.284-7.321l-0.254-0.317
			c-0.557-0.699-1.121-1.393-1.688-2.068l-0.233-0.278c-1.955-2.318-4.033-4.575-6.142-6.675l-0.205-0.203
			c-0.671-0.664-1.349-1.319-2.014-1.943l-0.203-0.192c-2.237-2.092-4.586-4.102-6.982-5.976l-0.108-0.085
			c-0.77-0.6-1.536-1.198-2.329-1.765c-0.013-0.009-0.067-0.05-0.079-0.059c-0.01-0.006-0.072-0.053-0.079-0.059
			c-17.736-13.153-38.874-19.957-60.927-19.957c-30.512,0-59.359,13.489-79.176,37.042c-2.868,3.413-5.546,7.041-7.987,10.838
			c-0.771,1.198-1.537,2.449-2.275,3.71l-0.135,0.229c-0.724,1.243-1.427,2.511-2.104,3.791l-0.093,0.179
			c-2.056,3.912-3.884,7.997-5.432,12.146l-0.133,0.353c-0.47,1.271-0.933,2.605-1.368,3.954l-0.163,0.506
			c-0.447,1.4-0.839,2.715-1.188,3.989l-0.123,0.454c-0.414,1.528-0.751,2.914-1.058,4.227c-0.006,0.024-0.01,0.048-0.015,0.07
			c-0.176,0.895-0.393,1.792-0.578,2.731c-51.035,10.09-61.915,24.467-61.983,34.846c-0.003,0.436,0.018,0.889,0.06,1.375
			c0.002,0.018,0.004,0.035,0.006,0.054c-0.036,0.424-0.055,0.83-0.057,1.23c-0.004,0.547,0.028,1.124,0.091,1.755
			c0.016,0.159,0.038,0.321,0.07,0.555c0.055,0.404,0.116,0.813,0.194,1.21c0.042,0.209,0.088,0.418,0.133,0.619
			c0.091,0.397,0.197,0.797,0.313,1.189l0.027,0.096c0.045,0.162,0.092,0.324,0.138,0.467c0.164,0.507,0.348,1.016,0.544,1.537
			c0.024,0.063,0.052,0.137,0.072,0.186c0.232,0.561,0.481,1.136,0.752,1.699c0.068,0.142,0.142,0.287,0.214,0.431l0.046,0.088
			c0.204,0.406,0.417,0.813,0.636,1.208c0.108,0.195,0.22,0.391,0.337,0.593c0.229,0.397,0.473,0.795,0.725,1.197l0.326,0.517
			c0.343,0.525,0.706,1.054,1.066,1.567c0.019,0.028,0.071,0.104,0.092,0.131c0.412,0.572,0.848,1.15,1.299,1.727l0.337,0.417
			c0.349,0.438,0.709,0.877,1.076,1.309l0.451,0.525c0.373,0.43,0.756,0.859,1.155,1.294l0.403,0.441
			c0.521,0.562,1.056,1.124,1.618,1.689c0.012,0.012,0.022,0.022,0.034,0.035c0.581,0.607,1.205,1.193,1.816,1.773l0.312,0.29
			c0.524,0.493,1.063,0.986,1.617,1.485l0.453,0.401c0.535,0.475,1.084,0.949,1.645,1.425l0.409,0.347
			c1.438,1.207,2.951,2.415,4.477,3.571l0.063,0.046c0.026,0.021,0.054,0.042,0.08,0.063c0.73,0.563,1.487,1.111,2.245,1.661
			l0.412,0.296c0.713,0.514,1.44,1.027,2.17,1.53l0.356,0.247c2.61,1.793,5.4,3.585,8.31,5.334l0.287,0.171
			c0.893,0.535,1.798,1.067,2.688,1.579l0.307,0.176c3.075,1.763,6.312,3.498,9.6,5.151l0.227,0.111
			c1.055,0.528,2.127,1.044,3.205,1.572c0.007,0.004,0.093,0.045,0.101,0.049l0.127,0.06c3.485,1.669,7.117,3.294,10.812,4.832
			l0.169,0.07c1.175,0.487,2.362,0.971,3.578,1.453l0.258,0.101c25.114,9.933,52.847,16.018,80.207,17.599l0.25,0.016
			c2.003,0.113,4.071,0.205,6.147,0.273l0.961,0.027c2.352,0.068,4.307,0.104,6.149,0.111l1.118,0.002h0.002
			c52.837,0,93.144-16.236,112.465-25.915c29.801-14.928,48.354-32.92,48.417-46.954c0.002-0.485-0.021-0.981-0.066-1.477
			C330.96,127.789,330.978,127.399,330.98,127.023z"/>
		<path style="fill:#A8A8A8;" d="M330.593,126.458c0.042-9.634-8.945-18.16-26.793-25.373c-0.012-0.004-0.095-0.038-0.105-0.042
			c-1.866-0.628-3.77-1.398-5.709-2.146c-0.018-0.007-0.037-0.013-0.056-0.021c-0.956-0.358-1.947-0.671-2.936-0.998l-0.25-0.082
			c-2.045-0.673-4.204-1.338-6.417-1.979c0,0-0.097-0.027-0.102-0.027c-1.05-0.304-2.119-0.603-3.2-0.898l-0.321-0.088
			c-2.262-0.613-4.624-1.216-7.006-1.786l-0.246-0.059c-1.11-0.265-2.235-0.526-3.385-0.784l-0.428-0.099
			c-0.221-0.049-0.442-0.099-0.665-0.149c-0.019-0.103-0.037-0.208-0.057-0.31l-0.182-0.958c-0.137-0.705-0.281-1.405-0.432-2.108
			l-0.185-0.859c-0.206-0.92-0.414-1.836-0.649-2.743c-0.007-0.024-0.028-0.115-0.035-0.141c-0.256-0.979-0.513-1.955-0.789-2.927
			l-0.193-0.656c-0.217-0.74-0.438-1.476-0.669-2.209l-0.265-0.821c-0.23-0.711-0.468-1.417-0.708-2.105l-0.256-0.736
			c-0.323-0.904-0.653-1.805-0.981-2.648c-0.007-0.018-0.03-0.08-0.037-0.097c-0.369-0.953-0.754-1.898-1.148-2.829l-0.186-0.431
			c-0.328-0.77-0.665-1.534-1.013-2.295l-0.296-0.643c-0.334-0.719-0.675-1.433-1.029-2.152l-0.269-0.548
			c-0.904-1.809-1.861-3.6-2.839-5.306l-0.108-0.185c-0.458-0.795-0.928-1.586-1.408-2.373l-0.286-0.464
			c-0.444-0.719-0.896-1.431-1.35-2.126l-0.264-0.406c-1.653-2.511-3.435-4.98-5.284-7.322l-0.253-0.316
			c-0.557-0.701-1.122-1.395-1.688-2.069l-0.233-0.277c-1.955-2.319-4.033-4.576-6.142-6.675l-0.206-0.205
			c-0.669-0.663-1.348-1.318-2.013-1.941l-0.202-0.193c-2.24-2.092-4.588-4.102-6.982-5.976l-0.11-0.085
			c-0.768-0.6-1.551-1.179-2.328-1.764c-0.013-0.01-0.068-0.051-0.081-0.059c-0.007-0.007-0.07-0.054-0.078-0.059
			c-17.228-13.811-38.873-19.956-60.927-19.956c-30.51,0-59.358,13.488-79.175,37.042c-2.869,3.411-5.545,7.04-7.988,10.837
			c-0.771,1.198-1.536,2.449-2.274,3.71l-0.135,0.229c-0.724,1.243-1.429,2.511-2.104,3.791l-0.093,0.179
			c-2.057,3.912-3.884,7.997-5.433,12.146l-0.134,0.352c-0.468,1.271-0.93,2.606-1.367,3.954l-0.162,0.506
			c-0.447,1.399-0.839,2.715-1.188,3.988l-0.122,0.455c-0.414,1.528-0.771,2.908-1.058,4.228c-0.005,0.022-0.011,0.047-0.016,0.069
			c-0.193,0.892-0.393,1.792-0.577,2.73C17.952,100.261,7.05,114.639,7.003,125.017c-0.003,0.436,0.019,0.889,0.062,1.375
			c0.001,0.018,0.003,0.035,0.005,0.054c-0.036,0.424-0.055,0.831-0.057,1.231c-0.003,0.546,0.027,1.123,0.09,1.754
			c0.017,0.159,0.04,0.321,0.071,0.556c0.055,0.404,0.117,0.813,0.196,1.21c0.04,0.209,0.087,0.417,0.133,0.618
			c0.09,0.397,0.196,0.797,0.312,1.189l0.026,0.096c0.045,0.162,0.092,0.325,0.137,0.467c0.162,0.508,0.35,1.017,0.546,1.536
			c0.023,0.063,0.052,0.139,0.071,0.187c0.231,0.563,0.484,1.136,0.753,1.699c0.067,0.142,0.141,0.287,0.214,0.432l0.046,0.087
			c0.203,0.405,0.419,0.814,0.637,1.208c0.107,0.195,0.219,0.392,0.336,0.593c0.231,0.396,0.471,0.795,0.725,1.197l0.326,0.517
			c0.342,0.525,0.705,1.054,1.066,1.567c0.019,0.028,0.072,0.104,0.092,0.132c0.407,0.575,0.846,1.149,1.299,1.726l0.336,0.417
			c0.35,0.438,0.71,0.878,1.076,1.31l0.452,0.524c0.371,0.431,0.756,0.86,1.153,1.294l0.405,0.441
			c0.521,0.561,1.044,1.137,1.616,1.689c0.013,0.011,0.024,0.022,0.036,0.035c0.591,0.595,1.205,1.193,1.817,1.773l0.31,0.289
			c0.524,0.493,1.063,0.986,1.619,1.485l0.452,0.401c0.535,0.475,1.084,0.95,1.643,1.425l0.411,0.347
			c1.438,1.207,2.952,2.415,4.475,3.571l0.063,0.046c0.027,0.022,0.053,0.042,0.081,0.063c0.739,0.552,1.486,1.111,2.245,1.661
			l0.412,0.296c0.713,0.514,1.439,1.026,2.169,1.53l0.357,0.247c2.609,1.793,5.4,3.585,8.311,5.335l0.286,0.17
			c0.892,0.534,1.799,1.067,2.688,1.58l0.307,0.175c3.075,1.764,6.311,3.498,9.601,5.151l0.226,0.111
			c1.054,0.528,2.127,1.045,3.205,1.572c0.008,0.004,0.093,0.046,0.101,0.049l0.125,0.061c3.486,1.669,7.119,3.294,10.813,4.832
			l0.17,0.07c1.175,0.487,2.362,0.972,3.578,1.453l0.257,0.102c25.114,9.933,52.847,16.018,80.208,17.599l0.249,0.016
			c2.003,0.113,4.072,0.206,6.149,0.274l0.96,0.026c2.352,0.068,4.307,0.104,6.15,0.111l1.117,0.002c0.003,0-0.002,0,0.002,0
			c52.835,0,93.143-16.235,112.464-25.915c29.803-14.928,48.354-32.919,48.416-46.954c0.003-0.485-0.019-0.982-0.065-1.477
			C330.572,127.224,330.591,126.834,330.593,126.458z"/>
		<path style="fill:#9A9A9A;" d="M330.206,125.894c0.042-9.634-8.946-18.16-26.793-25.373c-0.011-0.005-0.095-0.039-0.105-0.043
			c-1.838-0.705-3.753-1.442-5.709-2.146c-0.018-0.007-0.038-0.014-0.056-0.02c-0.961-0.345-1.946-0.672-2.935-0.998l-0.25-0.082
			c-2.045-0.673-4.205-1.339-6.418-1.979c-0.005-0.001-0.097-0.028-0.102-0.029c-1.05-0.303-2.119-0.602-3.199-0.896l-0.322-0.088
			c-2.262-0.613-4.624-1.216-7.005-1.786l-0.247-0.059c-1.109-0.266-2.235-0.526-3.384-0.785l-0.43-0.098
			c-0.22-0.049-0.441-0.1-0.665-0.148c-0.018-0.103-0.036-0.208-0.056-0.312l-0.183-0.957c-0.137-0.705-0.279-1.406-0.431-2.107
			l-0.186-0.86c-0.205-0.919-0.413-1.836-0.648-2.742c-0.007-0.025-0.028-0.116-0.035-0.141c-0.256-0.979-0.514-1.955-0.789-2.927
			l-0.194-0.656c-0.215-0.74-0.438-1.477-0.669-2.209l-0.263-0.821c-0.231-0.711-0.469-1.417-0.709-2.105l-0.256-0.736
			c-0.323-0.905-0.634-1.813-0.981-2.648c-0.007-0.018-0.03-0.081-0.037-0.098c-0.37-0.952-0.755-1.897-1.148-2.829l-0.185-0.43
			c-0.329-0.77-0.666-1.534-1.014-2.296l-0.296-0.642c-0.333-0.72-0.675-1.433-1.029-2.152l-0.269-0.548
			c-0.902-1.81-1.86-3.6-2.838-5.306l-0.107-0.185c-0.459-0.797-0.93-1.587-1.411-2.374l-0.285-0.463
			c-0.444-0.719-0.896-1.433-1.351-2.127l-0.264-0.406c-1.652-2.51-3.436-4.979-5.283-7.321l-0.253-0.317
			c-0.558-0.7-1.123-1.394-1.688-2.069l-0.233-0.277c-1.956-2.318-4.034-4.576-6.142-6.675l-0.206-0.204
			c-0.669-0.664-1.348-1.318-2.013-1.942l-0.202-0.192c-2.238-2.092-4.589-4.102-6.983-5.976l-0.11-0.085
			c-0.767-0.6-1.546-1.184-2.328-1.765c-0.012-0.009-0.068-0.051-0.079-0.059c-0.008-0.006-0.072-0.054-0.08-0.06
			C214.127,11.533,192.48,5.388,170.428,5.388c-30.511,0-59.358,13.488-79.176,37.041c-2.87,3.413-5.545,7.041-7.988,10.839
			c-0.77,1.198-1.537,2.449-2.274,3.71l-0.135,0.229c-0.724,1.244-1.428,2.512-2.104,3.791l-0.093,0.18
			c-2.058,3.912-3.884,7.996-5.434,12.146l-0.133,0.352c-0.468,1.271-0.93,2.604-1.367,3.954l-0.163,0.506
			c-0.446,1.399-0.838,2.715-1.188,3.988l-0.121,0.455c-0.415,1.528-0.776,2.907-1.058,4.227c-0.005,0.023-0.011,0.048-0.017,0.07
			c-0.211,0.887-0.392,1.792-0.575,2.73C17.564,99.696,6.663,114.072,6.616,124.452c-0.002,0.436,0.018,0.889,0.063,1.375
			c0,0.018,0.003,0.035,0.003,0.054c-0.034,0.424-0.055,0.83-0.056,1.23c-0.003,0.547,0.027,1.124,0.09,1.755
			c0.016,0.159,0.039,0.321,0.07,0.554c0.055,0.406,0.119,0.814,0.197,1.211c0.041,0.208,0.086,0.418,0.133,0.619
			c0.091,0.397,0.197,0.797,0.312,1.189l0.025,0.096c0.046,0.162,0.093,0.324,0.139,0.467c0.161,0.508,0.35,1.016,0.545,1.536
			c0.024,0.063,0.052,0.138,0.07,0.186c0.225,0.566,0.485,1.136,0.754,1.7c0.067,0.142,0.142,0.287,0.215,0.431l0.045,0.088
			c0.204,0.405,0.42,0.812,0.637,1.207c0.107,0.195,0.218,0.392,0.335,0.594c0.232,0.396,0.473,0.795,0.726,1.197l0.326,0.517
			c0.342,0.525,0.706,1.054,1.066,1.567c0.019,0.027,0.072,0.104,0.091,0.131c0.406,0.576,0.849,1.15,1.3,1.725l0.337,0.419
			c0.349,0.436,0.709,0.876,1.075,1.309l0.452,0.525c0.372,0.43,0.756,0.859,1.154,1.294l0.403,0.441
			c0.521,0.561,1.057,1.125,1.618,1.689c0.011,0.011,0.023,0.022,0.035,0.035c0.592,0.594,1.205,1.193,1.817,1.771l0.309,0.291
			c0.525,0.493,1.063,0.986,1.62,1.485l0.452,0.401c0.535,0.474,1.084,0.948,1.643,1.424l0.411,0.347
			c1.439,1.208,2.952,2.416,4.477,3.572l0.063,0.046c0.025,0.021,0.052,0.042,0.08,0.063c0.738,0.55,1.486,1.111,2.245,1.661
			l0.411,0.296c0.714,0.514,1.44,1.026,2.17,1.529l0.357,0.248c2.609,1.793,5.399,3.585,8.31,5.334l0.286,0.171
			c0.893,0.534,1.8,1.066,2.69,1.579l0.306,0.176c3.075,1.763,6.311,3.498,9.601,5.151l0.226,0.111
			c1.053,0.528,2.126,1.044,3.205,1.572c0.008,0.004,0.093,0.045,0.101,0.048l0.126,0.061c3.485,1.668,7.119,3.293,10.813,4.832
			l0.169,0.07c1.175,0.487,2.362,0.971,3.578,1.452l0.258,0.103c25.112,9.933,52.846,16.018,80.208,17.599l0.248,0.015
			c2.003,0.114,4.071,0.206,6.149,0.274l0.961,0.027c2.351,0.068,4.306,0.104,6.149,0.11l1.117,0.003c0,0-0.002,0,0.002,0
			c52.836,0,93.144-16.236,112.464-25.915c29.803-14.929,48.354-32.92,48.416-46.954c0.003-0.486-0.019-0.981-0.064-1.477
			C330.185,126.659,330.204,126.27,330.206,125.894z"/>
		<path style="fill:#8B8B8B;" d="M329.82,125.328c0.041-9.634-8.947-18.16-26.794-25.372c-0.01-0.006-0.095-0.04-0.104-0.044
			c-1.839-0.704-3.754-1.442-5.71-2.146c-0.018-0.007-0.037-0.014-0.056-0.019c-0.968-0.322-1.947-0.673-2.935-0.999l-0.25-0.081
			c-2.046-0.673-4.206-1.34-6.419-1.98c-0.004,0-0.096-0.026-0.101-0.028c-1.049-0.303-2.118-0.603-3.199-0.896l-0.322-0.089
			c-2.261-0.612-4.624-1.216-7.006-1.785l-0.246-0.059c-1.109-0.267-2.235-0.526-3.384-0.786l-0.43-0.097
			c-0.22-0.051-0.442-0.101-0.664-0.15c-0.019-0.104-0.036-0.208-0.057-0.312l-0.183-0.956c-0.137-0.705-0.279-1.407-0.431-2.108
			l-0.185-0.86c-0.206-0.919-0.402-1.839-0.649-2.741c-0.007-0.026-0.028-0.116-0.035-0.141c-0.256-0.979-0.514-1.955-0.789-2.928
			l-0.194-0.656c-0.215-0.74-0.438-1.477-0.668-2.209l-0.264-0.821c-0.231-0.711-0.468-1.418-0.709-2.105l-0.256-0.736
			c-0.322-0.905-0.661-1.802-0.982-2.648c-0.007-0.018-0.03-0.081-0.036-0.098c-0.371-0.951-0.755-1.897-1.149-2.829l-0.185-0.43
			c-0.329-0.769-0.666-1.534-1.014-2.297l-0.296-0.64c-0.333-0.72-0.675-1.434-1.029-2.152l-0.269-0.549
			c-0.903-1.81-1.862-3.599-2.839-5.306l-0.106-0.184c-0.459-0.798-0.93-1.588-1.411-2.375l-0.285-0.463
			c-0.443-0.719-0.896-1.433-1.351-2.126l-0.263-0.407c-1.654-2.51-3.436-4.979-5.284-7.32l-0.253-0.318
			c-0.557-0.7-1.123-1.393-1.689-2.068l-0.232-0.279c-1.955-2.316-4.033-4.575-6.143-6.674l-0.206-0.204
			c-0.669-0.664-1.348-1.317-2.012-1.942l-0.203-0.191c-2.238-2.093-4.589-4.101-6.983-5.975l-0.109-0.085
			c-0.769-0.601-1.53-1.206-2.329-1.766c-0.011-0.008-0.067-0.05-0.079-0.059c-0.008-0.006-0.072-0.054-0.08-0.06
			c-17.733-13.15-38.872-19.957-60.925-19.957c-30.511,0-59.359,13.489-79.176,37.042c-2.87,3.413-5.546,7.041-7.988,10.839
			c-0.77,1.199-1.537,2.45-2.274,3.71l-0.135,0.228c-0.723,1.244-1.428,2.513-2.105,3.791l-0.092,0.181
			c-2.058,3.912-3.885,7.996-5.434,12.145l-0.132,0.353c-0.47,1.271-0.932,2.604-1.368,3.953l-0.163,0.507
			c-0.446,1.399-0.838,2.715-1.188,3.987l-0.122,0.455c-0.414,1.527-0.759,2.912-1.058,4.226c-0.006,0.025-0.011,0.047-0.016,0.07
			c-0.212,0.887-0.393,1.792-0.577,2.73C17.178,99.131,6.276,113.507,6.229,123.887c-0.002,0.436,0.019,0.89,0.063,1.375
			c0,0.019,0.003,0.035,0.004,0.054c-0.035,0.424-0.055,0.83-0.056,1.229c-0.003,0.548,0.027,1.126,0.09,1.757
			c0.015,0.159,0.038,0.32,0.069,0.553c0.056,0.406,0.12,0.815,0.197,1.211c0.041,0.208,0.087,0.419,0.133,0.618
			c0.091,0.398,0.197,0.799,0.312,1.19l0.025,0.096c0.046,0.163,0.093,0.323,0.139,0.467c0.161,0.509,0.35,1.016,0.546,1.536
			c0.024,0.063,0.051,0.138,0.069,0.186c0.225,0.565,0.482,1.136,0.754,1.701c0.067,0.141,0.142,0.285,0.215,0.43l0.045,0.088
			c0.204,0.406,0.418,0.813,0.636,1.208c0.108,0.195,0.219,0.391,0.337,0.593c0.231,0.396,0.473,0.795,0.726,1.197l0.325,0.517
			c0.342,0.525,0.717,1.047,1.066,1.567c0.019,0.027,0.072,0.104,0.092,0.131c0.405,0.576,0.848,1.15,1.299,1.726l0.337,0.418
			c0.35,0.437,0.708,0.876,1.076,1.309l0.451,0.525c0.373,0.429,0.756,0.859,1.154,1.295l0.403,0.441
			c0.521,0.561,1.058,1.123,1.618,1.689c0.011,0.011,0.023,0.022,0.035,0.034c0.579,0.606,1.205,1.195,1.817,1.772l0.309,0.291
			c0.526,0.493,1.063,0.986,1.62,1.486l0.453,0.399c0.534,0.476,1.083,0.949,1.643,1.425l0.41,0.347
			c1.438,1.209,2.951,2.416,4.476,3.572l0.063,0.047c0.025,0.021,0.052,0.041,0.079,0.063c0.734,0.555,1.487,1.11,2.246,1.66
			l0.411,0.296c0.715,0.514,1.441,1.027,2.171,1.529l0.356,0.248c2.61,1.793,5.399,3.585,8.31,5.334l0.286,0.172
			c0.893,0.534,1.8,1.065,2.69,1.578l0.306,0.176c3.076,1.763,6.311,3.498,9.601,5.15l0.226,0.113
			c1.054,0.527,2.127,1.043,3.205,1.571c0.008,0.004,0.093,0.045,0.101,0.049l0.126,0.061c3.485,1.669,7.119,3.293,10.813,4.832
			l0.169,0.07c1.175,0.487,2.363,0.971,3.578,1.452l0.258,0.102c25.113,9.933,52.846,16.018,80.208,17.6l0.248,0.014
			c2.004,0.115,4.071,0.206,6.149,0.274l0.96,0.028c2.352,0.067,4.307,0.103,6.15,0.109l1.118,0.003h0.002
			c52.835,0,93.144-16.237,112.463-25.914c29.803-14.929,48.354-32.921,48.416-46.954c0.003-0.487-0.019-0.981-0.064-1.478
			C329.799,126.094,329.817,125.704,329.82,125.328z"/>
		<path style="fill:#7D7D7D;" d="M329.433,124.764c0.042-9.634-8.946-18.16-26.793-25.374c-0.011-0.004-0.095-0.038-0.105-0.042
			c-1.838-0.704-3.742-1.474-5.707-2.146c-0.02-0.007-0.039-0.014-0.058-0.021c-0.961-0.345-1.947-0.671-2.935-0.997l-0.25-0.082
			c-2.045-0.673-4.204-1.339-6.416-1.979c-0.005-0.001-0.098-0.027-0.103-0.028c-1.049-0.303-2.117-0.602-3.2-0.896l-0.322-0.089
			c-2.261-0.612-4.622-1.215-7.004-1.785l-0.246-0.059c-1.111-0.266-2.236-0.526-3.385-0.785l-0.429-0.098
			c-0.221-0.05-0.441-0.1-0.665-0.148c-0.02-0.104-0.037-0.208-0.057-0.312l-0.183-0.957c-0.136-0.705-0.28-1.406-0.43-2.108
			l-0.186-0.859c-0.207-0.919-0.414-1.836-0.65-2.742c-0.006-0.025-0.027-0.116-0.034-0.141c-0.255-0.979-0.513-1.955-0.79-2.927
			l-0.192-0.657c-0.217-0.739-0.438-1.476-0.669-2.209l-0.265-0.821c-0.23-0.71-0.468-1.417-0.708-2.104l-0.255-0.737
			c-0.323-0.904-0.634-1.813-0.982-2.648c-0.008-0.017-0.03-0.08-0.038-0.098c-0.393-0.942-0.754-1.897-1.148-2.828l-0.186-0.43
			c-0.328-0.769-0.665-1.534-1.013-2.297l-0.296-0.641c-0.334-0.72-0.675-1.433-1.029-2.152l-0.268-0.548
			c-0.904-1.811-1.86-3.6-2.839-5.306l-0.107-0.184c-0.458-0.797-0.93-1.587-1.409-2.374l-0.286-0.463
			c-0.443-0.719-0.896-1.433-1.351-2.127l-0.264-0.406c-1.653-2.51-3.435-4.979-5.284-7.321l-0.252-0.317
			c-0.557-0.7-1.123-1.394-1.688-2.068l-0.233-0.279c-1.955-2.317-4.033-4.575-6.143-6.674l-0.206-0.204
			c-0.67-0.664-1.347-1.318-2.013-1.942l-0.203-0.192c-2.238-2.092-4.587-4.101-6.982-5.976l-0.109-0.085
			c-0.768-0.6-1.547-1.184-2.328-1.765c-0.012-0.009-0.068-0.051-0.079-0.06c-0.01-0.005-0.073-0.053-0.08-0.059
			c-17.734-13.151-38.873-19.957-60.927-19.957c-30.511,0-59.358,13.489-79.175,37.042c-2.869,3.413-5.546,7.041-7.988,10.839
			c-0.77,1.198-1.537,2.448-2.273,3.71l-0.135,0.229c-0.724,1.244-1.428,2.512-2.104,3.791l-0.094,0.18
			c-2.057,3.912-3.883,7.996-5.433,12.145l-0.132,0.353c-0.469,1.271-0.933,2.604-1.369,3.953l-0.163,0.506
			c-0.447,1.4-0.838,2.715-1.188,3.989l-0.121,0.455c-0.415,1.527-0.803,2.901-1.06,4.227c-0.005,0.023-0.01,0.047-0.015,0.07
			c-0.193,0.89-0.393,1.792-0.576,2.73C16.791,98.566,5.89,112.942,5.843,123.322c-0.003,0.435,0.019,0.888,0.062,1.375
			c0.001,0.017,0.004,0.035,0.005,0.053c-0.036,0.425-0.055,0.831-0.057,1.23c-0.002,0.548,0.032,1.125,0.092,1.756
			c0.015,0.159,0.038,0.321,0.069,0.554c0.054,0.405,0.119,0.814,0.196,1.211c0.041,0.208,0.086,0.418,0.132,0.618
			c0.091,0.398,0.197,0.798,0.311,1.191l0.027,0.096c0.045,0.161,0.094,0.323,0.139,0.467c0.162,0.507,0.344,1.018,0.544,1.536
			c0.023,0.063,0.051,0.138,0.071,0.186c0.229,0.563,0.485,1.134,0.754,1.699c0.067,0.143,0.14,0.287,0.214,0.432l0.045,0.088
			c0.203,0.405,0.419,0.813,0.637,1.208c0.107,0.194,0.219,0.39,0.336,0.593c0.231,0.396,0.472,0.795,0.725,1.197l0.326,0.517
			c0.342,0.525,0.705,1.053,1.066,1.567c0.019,0.027,0.071,0.104,0.092,0.131c0.411,0.572,0.847,1.149,1.299,1.726l0.337,0.418
			c0.349,0.437,0.709,0.876,1.075,1.309l0.452,0.525c0.372,0.429,0.756,0.859,1.155,1.294l0.402,0.441
			c0.521,0.561,1.069,1.112,1.619,1.688c0.011,0.012,0.021,0.023,0.035,0.035c0.602,0.584,1.205,1.194,1.815,1.773l0.311,0.291
			c0.524,0.492,1.063,0.986,1.618,1.485l0.453,0.4c0.535,0.475,1.084,0.949,1.645,1.425l0.41,0.347
			c1.438,1.208,2.95,2.416,4.475,3.572l0.063,0.046c0.026,0.021,0.055,0.041,0.081,0.063c0.729,0.563,1.486,1.11,2.245,1.661
			l0.412,0.296c0.713,0.513,1.439,1.026,2.169,1.529l0.357,0.247c2.61,1.794,5.399,3.586,8.31,5.334l0.286,0.172
			c0.893,0.534,1.799,1.066,2.689,1.579l0.307,0.175c3.075,1.764,6.311,3.499,9.601,5.151l0.226,0.112
			c1.054,0.528,2.114,1.068,3.205,1.572c0.008,0.004,0.093,0.045,0.101,0.048l0.126,0.061c3.485,1.669,7.118,3.293,10.813,4.832
			l0.169,0.069c1.176,0.488,2.363,0.972,3.577,1.453l0.258,0.103c25.114,9.932,52.848,16.018,80.209,17.599l0.248,0.015
			c2.004,0.114,4.071,0.206,6.149,0.274l0.96,0.027c2.352,0.068,4.308,0.103,6.149,0.11l1.118,0.003c0.003,0,0,0,0,0
			c52.838,0,93.145-16.237,112.466-25.915c29.803-14.928,48.355-32.921,48.418-46.954c0.001-0.486-0.022-0.981-0.066-1.477
			C329.412,125.529,329.431,125.14,329.433,124.764z"/>
		<path style="fill:#6E6E6E;" d="M329.046,124.198c0.042-9.633-8.945-18.159-26.793-25.374c-0.011-0.003-0.095-0.037-0.105-0.042
			c-1.81-0.775-3.747-1.457-5.708-2.147c-0.02-0.007-0.037-0.013-0.057-0.021c-0.959-0.35-1.947-0.67-2.935-0.996l-0.25-0.082
			c-2.046-0.674-4.204-1.34-6.418-1.979c-0.005-0.001-0.097-0.028-0.102-0.029c-1.05-0.302-2.118-0.603-3.2-0.896l-0.321-0.09
			c-2.261-0.611-4.624-1.214-7.006-1.785l-0.245-0.059c-1.111-0.266-2.236-0.526-3.386-0.785l-0.427-0.097
			c-0.221-0.051-0.443-0.101-0.666-0.15c-0.019-0.103-0.037-0.207-0.057-0.31l-0.182-0.957c-0.137-0.706-0.281-1.406-0.431-2.109
			l-0.186-0.858c-0.206-0.919-0.418-1.835-0.649-2.743c-0.007-0.025-0.028-0.115-0.035-0.141c-0.251-0.98-0.513-1.954-0.789-2.927
			l-0.193-0.657c-0.216-0.739-0.438-1.475-0.668-2.209l-0.266-0.821c-0.229-0.71-0.468-1.417-0.708-2.104l-0.256-0.736
			c-0.323-0.905-0.642-1.809-0.98-2.648c-0.008-0.018-0.03-0.08-0.038-0.099c-0.382-0.945-0.753-1.897-1.147-2.827l-0.187-0.431
			c-0.327-0.769-0.665-1.534-1.013-2.297l-0.296-0.641c-0.334-0.719-0.674-1.433-1.028-2.152l-0.27-0.548
			c-0.903-1.81-1.861-3.6-2.839-5.306l-0.107-0.184c-0.458-0.798-0.929-1.588-1.409-2.374l-0.286-0.464
			c-0.444-0.719-0.897-1.432-1.351-2.127l-0.264-0.406c-1.653-2.511-3.435-4.979-5.284-7.32l-0.253-0.318
			c-0.556-0.7-1.122-1.393-1.688-2.068l-0.233-0.278c-1.955-2.318-4.032-4.575-6.142-6.675l-0.205-0.203
			c-0.67-0.665-1.349-1.319-2.014-1.943l-0.203-0.191c-2.238-2.093-4.586-4.103-6.981-5.977l-0.11-0.085
			c-0.768-0.599-1.562-1.164-2.328-1.765c-0.012-0.009-0.068-0.051-0.08-0.06c-0.008-0.004-0.071-0.053-0.078-0.058
			C212.307,10.704,191.32,3.691,169.267,3.691c-30.51,0-59.358,13.49-79.175,37.042c-2.868,3.414-5.545,7.041-7.988,10.839
			c-0.77,1.198-1.536,2.448-2.274,3.709l-0.135,0.229c-0.724,1.245-1.428,2.512-2.104,3.791l-0.093,0.179
			c-2.057,3.913-3.883,7.998-5.433,12.146l-0.133,0.354c-0.469,1.271-0.931,2.604-1.368,3.952l-0.162,0.507
			c-0.447,1.399-0.839,2.714-1.188,3.989l-0.121,0.454c-0.415,1.527-0.803,2.902-1.059,4.227c-0.005,0.023-0.01,0.048-0.015,0.071
			c-0.176,0.892-0.394,1.792-0.578,2.73c-51.035,10.09-61.915,24.467-61.983,34.845c-0.003,0.438,0.018,0.889,0.062,1.376
			c0.001,0.018,0.002,0.035,0.004,0.053c-0.036,0.426-0.054,0.832-0.057,1.23c-0.003,0.549,0.027,1.125,0.091,1.757
			c0.017,0.159,0.039,0.32,0.07,0.554c0.055,0.405,0.117,0.813,0.196,1.21c0.041,0.208,0.087,0.418,0.133,0.618
			c0.092,0.398,0.196,0.799,0.312,1.19l0.026,0.096c0.045,0.161,0.093,0.324,0.138,0.467c0.164,0.507,0.349,1.016,0.546,1.536
			c0.023,0.063,0.051,0.138,0.07,0.186c0.227,0.564,0.486,1.135,0.754,1.699c0.067,0.142,0.141,0.286,0.213,0.431l0.047,0.089
			c0.202,0.405,0.419,0.813,0.637,1.208c0.106,0.193,0.218,0.389,0.335,0.593c0.229,0.396,0.472,0.795,0.725,1.196l0.327,0.517
			c0.341,0.525,0.704,1.053,1.066,1.567c0.018,0.027,0.072,0.104,0.092,0.131c0.412,0.572,0.847,1.15,1.3,1.727l0.335,0.418
			c0.35,0.436,0.71,0.876,1.076,1.307l0.452,0.527c0.372,0.429,0.756,0.858,1.154,1.294l0.404,0.44
			c0.521,0.561,1.057,1.124,1.617,1.688c0.012,0.012,0.024,0.024,0.036,0.036c0.601,0.584,1.204,1.192,1.816,1.773l0.311,0.291
			c0.523,0.491,1.063,0.985,1.618,1.484l0.453,0.401c0.534,0.474,1.084,0.949,1.643,1.424l0.411,0.348
			c1.438,1.208,2.951,2.416,4.475,3.571l0.063,0.047c0.028,0.021,0.054,0.041,0.081,0.063c0.734,0.555,1.486,1.11,2.245,1.66
			l0.412,0.297c0.713,0.512,1.439,1.025,2.169,1.529l0.357,0.246c2.609,1.794,5.401,3.586,8.311,5.334l0.286,0.173
			c0.892,0.534,1.799,1.065,2.688,1.578l0.307,0.175c3.075,1.764,6.311,3.5,9.601,5.151l0.226,0.112
			c1.054,0.529,2.126,1.044,3.205,1.572c0.008,0.004,0.093,0.044,0.101,0.049l0.126,0.06c3.486,1.671,7.118,3.294,10.812,4.832
			l0.17,0.071c1.175,0.488,2.362,0.97,3.578,1.452l0.258,0.102c25.113,9.932,52.846,16.018,80.208,17.599l0.249,0.015
			c2.002,0.114,4.071,0.206,6.149,0.274l0.959,0.027c2.352,0.067,4.307,0.103,6.15,0.11l1.117,0.003h0.003
			c52.835,0,93.143-16.237,112.464-25.915c29.801-14.928,48.354-32.92,48.416-46.954c0.002-0.486-0.02-0.98-0.066-1.477
			C329.025,124.965,329.044,124.574,329.046,124.198z"/>
		<path style="fill:#606060;" d="M328.659,123.634c0.042-9.634-8.945-18.16-26.793-25.374c-0.011-0.005-0.095-0.038-0.105-0.042
			c-1.826-0.735-3.747-1.457-5.708-2.146c-0.019-0.007-0.038-0.014-0.057-0.021c-0.964-0.337-1.946-0.671-2.935-0.997l-0.25-0.083
			c-2.045-0.672-4.205-1.338-6.418-1.979c-0.005-0.001-0.097-0.027-0.102-0.028c-1.05-0.303-2.118-0.603-3.199-0.897l-0.322-0.088
			c-2.262-0.612-4.624-1.215-7.005-1.785l-0.247-0.058c-1.109-0.266-2.235-0.527-3.384-0.786l-0.429-0.097
			c-0.221-0.05-0.442-0.1-0.665-0.149c-0.019-0.103-0.037-0.207-0.057-0.311l-0.182-0.958c-0.137-0.704-0.28-1.405-0.432-2.107
			l-0.185-0.86c-0.206-0.918-0.421-1.833-0.649-2.742c-0.007-0.024-0.028-0.115-0.035-0.14c-0.248-0.981-0.513-1.955-0.789-2.928
			L268.52,78.4c-0.216-0.739-0.438-1.476-0.669-2.209l-0.264-0.821c-0.23-0.71-0.469-1.417-0.709-2.104l-0.256-0.737
			c-0.323-0.904-0.653-1.805-0.981-2.648c-0.007-0.017-0.03-0.08-0.037-0.098c-0.369-0.952-0.754-1.897-1.147-2.828l-0.185-0.431
			c-0.329-0.769-0.666-1.533-1.014-2.296l-0.296-0.642c-0.333-0.719-0.675-1.432-1.028-2.151l-0.27-0.548
			c-0.903-1.811-1.861-3.6-2.839-5.306l-0.106-0.185c-0.459-0.797-0.93-1.587-1.41-2.374l-0.286-0.463
			c-0.444-0.72-0.896-1.433-1.351-2.127l-0.264-0.406c-1.652-2.511-3.435-4.979-5.283-7.321l-0.253-0.317
			c-0.558-0.7-1.123-1.394-1.688-2.069l-0.232-0.278c-1.956-2.317-4.034-4.575-6.143-6.675l-0.205-0.203
			c-0.67-0.664-1.349-1.318-2.014-1.943l-0.202-0.191c-2.238-2.092-4.588-4.102-6.982-5.976l-0.11-0.085
			c-0.768-0.601-1.544-1.188-2.328-1.766c-0.013-0.008-0.068-0.05-0.079-0.059c-0.009-0.006-0.072-0.053-0.08-0.059
			c-17.806-13.056-38.873-19.957-60.926-19.957c-30.511,0-59.358,13.489-79.176,37.042c-2.869,3.413-5.545,7.041-7.988,10.839
			c-0.77,1.198-1.536,2.448-2.274,3.709l-0.135,0.229c-0.724,1.244-1.427,2.512-2.104,3.791l-0.093,0.179
			c-2.057,3.912-3.884,7.997-5.433,12.146l-0.133,0.352c-0.469,1.271-0.931,2.605-1.367,3.954l-0.163,0.506
			c-0.447,1.4-0.839,2.715-1.188,3.989l-0.122,0.455c-0.414,1.527-0.76,2.91-1.058,4.227c-0.005,0.023-0.011,0.047-0.016,0.069
			c-0.2,0.889-0.392,1.793-0.576,2.732C16.018,97.436,5.116,111.813,5.07,122.191c-0.003,0.437,0.018,0.889,0.062,1.376
			c0.001,0.017,0.003,0.035,0.004,0.053c-0.035,0.425-0.055,0.831-0.057,1.23c-0.003,0.548,0.027,1.125,0.091,1.756
			c0.016,0.159,0.037,0.32,0.07,0.554c0.053,0.405,0.117,0.813,0.196,1.211c0.041,0.208,0.086,0.417,0.133,0.618
			c0.09,0.398,0.197,0.798,0.311,1.189l0.026,0.096c0.046,0.162,0.092,0.324,0.139,0.468c0.161,0.508,0.342,1.018,0.544,1.536
			c0.023,0.063,0.052,0.138,0.071,0.186c0.227,0.564,0.482,1.136,0.753,1.699c0.067,0.143,0.142,0.287,0.215,0.432l0.045,0.088
			c0.204,0.405,0.417,0.813,0.637,1.208c0.107,0.194,0.219,0.39,0.336,0.593c0.23,0.396,0.472,0.795,0.725,1.197l0.326,0.516
			c0.342,0.526,0.702,1.057,1.066,1.568c0.02,0.027,0.072,0.104,0.092,0.131c0.411,0.572,0.847,1.149,1.299,1.726l0.337,0.418
			c0.349,0.437,0.709,0.876,1.075,1.308l0.452,0.526c0.372,0.429,0.756,0.859,1.155,1.294l0.403,0.441
			c0.521,0.561,1.058,1.122,1.618,1.689c0.011,0.012,0.022,0.023,0.034,0.035c0.591,0.596,1.205,1.193,1.817,1.773l0.31,0.291
			c0.524,0.492,1.063,0.986,1.619,1.485l0.452,0.4c0.536,0.475,1.084,0.949,1.644,1.425l0.41,0.347
			c1.439,1.208,2.952,2.415,4.477,3.572l0.063,0.045c0.026,0.022,0.053,0.042,0.08,0.063c0.734,0.557,1.486,1.111,2.245,1.662
			l0.412,0.295c0.713,0.514,1.439,1.027,2.169,1.53l0.357,0.247c2.609,1.793,5.4,3.586,8.311,5.334l0.286,0.172
			c0.892,0.534,1.799,1.066,2.69,1.579l0.306,0.175c3.075,1.763,6.311,3.498,9.601,5.151l0.227,0.112
			c1.053,0.528,2.121,1.052,3.204,1.572c0.008,0.004,0.093,0.044,0.101,0.048l0.126,0.061c3.486,1.669,7.119,3.294,10.812,4.832
			l0.169,0.07c1.175,0.488,2.362,0.971,3.578,1.453l0.258,0.103c25.113,9.932,52.846,16.018,80.208,17.598l0.249,0.016
			c2.002,0.113,4.071,0.205,6.148,0.273l0.961,0.027c2.351,0.068,4.306,0.104,6.15,0.111l1.117,0.003h0.002
			c52.836,0,93.144-16.237,112.465-25.915c29.802-14.929,48.354-32.921,48.416-46.954c0.002-0.486-0.02-0.981-0.065-1.478
			C328.639,124.398,328.658,124.01,328.659,123.634z"/>
	</g>
	<path style="fill:#FFFFFF;" d="M328.659,123.634c0.042-9.634-8.945-18.16-26.793-25.374c-0.011-0.005-0.095-0.038-0.105-0.042
		c-1.826-0.735-3.747-1.457-5.708-2.146c-0.019-0.007-0.038-0.014-0.057-0.021c-0.964-0.337-1.946-0.671-2.935-0.997l-0.25-0.083
		c-2.045-0.672-4.205-1.338-6.418-1.979c-0.005-0.001-0.097-0.027-0.102-0.028c-1.05-0.303-2.118-0.603-3.199-0.897l-0.322-0.088
		c-2.262-0.612-4.624-1.215-7.005-1.785l-0.247-0.058c-1.109-0.266-2.235-0.527-3.384-0.786l-0.429-0.097
		c-0.221-0.05-0.442-0.1-0.665-0.149c-0.019-0.103-0.037-0.207-0.057-0.311l-0.182-0.958c-0.137-0.704-0.28-1.405-0.432-2.107
		l-0.185-0.86c-0.206-0.918-0.421-1.833-0.649-2.742c-0.007-0.024-0.028-0.115-0.035-0.14c-0.248-0.981-0.513-1.955-0.789-2.928
		L268.52,78.4c-0.216-0.739-0.438-1.476-0.669-2.209l-0.264-0.821c-0.23-0.71-0.469-1.417-0.709-2.104l-0.256-0.737
		c-0.323-0.904-0.653-1.805-0.981-2.648c-0.007-0.017-0.03-0.08-0.037-0.098c-0.369-0.952-0.754-1.897-1.147-2.828l-0.185-0.431
		c-0.329-0.769-0.666-1.533-1.014-2.296l-0.296-0.642c-0.333-0.719-0.675-1.432-1.028-2.151l-0.27-0.548
		c-0.903-1.811-1.861-3.6-2.839-5.306l-0.106-0.185c-0.459-0.797-0.93-1.587-1.41-2.374l-0.286-0.463
		c-0.444-0.72-0.896-1.433-1.351-2.127l-0.264-0.406c-1.652-2.511-3.435-4.979-5.283-7.321l-0.253-0.317
		c-0.558-0.7-1.123-1.394-1.688-2.069l-0.232-0.278c-1.956-2.317-4.034-4.575-6.143-6.675l-0.205-0.203
		c-0.67-0.664-1.349-1.318-2.014-1.943l-0.202-0.191c-2.238-2.092-4.588-4.102-6.982-5.976l-0.11-0.085
		c-0.768-0.601-1.544-1.188-2.328-1.766c-0.013-0.008-0.068-0.05-0.079-0.059c-0.009-0.006-0.072-0.053-0.08-0.059
		c-17.806-13.056-38.873-19.957-60.926-19.957c-30.511,0-59.358,13.489-79.176,37.042c-2.869,3.413-5.545,7.041-7.988,10.839
		c-0.77,1.198-1.536,2.448-2.274,3.709l-0.135,0.229c-0.724,1.244-1.427,2.512-2.104,3.791l-0.093,0.179
		c-2.057,3.912-3.884,7.997-5.433,12.146l-0.133,0.352c-0.469,1.271-0.931,2.605-1.367,3.954l-0.163,0.506
		c-0.447,1.4-0.839,2.715-1.188,3.989l-0.122,0.455c-0.414,1.527-0.76,2.91-1.058,4.227c-0.005,0.023-0.011,0.047-0.016,0.069
		c-0.2,0.889-0.392,1.793-0.576,2.732C16.018,97.436,5.116,111.813,5.07,122.191c-0.003,0.437,0.018,0.889,0.062,1.376
		c0.001,0.017,0.003,0.035,0.004,0.053c-0.035,0.425-0.055,0.831-0.057,1.23c-0.003,0.548,0.027,1.125,0.091,1.756
		c0.016,0.159,0.037,0.32,0.07,0.554c0.053,0.405,0.117,0.813,0.196,1.211c0.041,0.208,0.086,0.417,0.133,0.618
		c0.09,0.398,0.197,0.798,0.311,1.189l0.026,0.096c0.046,0.162,0.092,0.324,0.139,0.468c0.161,0.508,0.342,1.018,0.544,1.536
		c0.023,0.063,0.052,0.138,0.071,0.186c0.227,0.564,0.482,1.136,0.753,1.699c0.067,0.143,0.142,0.287,0.215,0.432l0.045,0.088
		c0.204,0.405,0.417,0.813,0.637,1.208c0.107,0.194,0.219,0.39,0.336,0.593c0.23,0.396,0.472,0.795,0.725,1.197l0.326,0.516
		c0.342,0.526,0.702,1.057,1.066,1.568c0.02,0.027,0.072,0.104,0.092,0.131c0.411,0.572,0.847,1.149,1.299,1.726l0.337,0.418
		c0.349,0.437,0.709,0.876,1.075,1.308l0.452,0.526c0.372,0.429,0.756,0.859,1.155,1.294l0.403,0.441
		c0.521,0.561,1.058,1.122,1.618,1.689c0.011,0.012,0.022,0.023,0.034,0.035c0.591,0.596,1.205,1.193,1.817,1.773l0.31,0.291
		c0.524,0.492,1.063,0.986,1.619,1.485l0.452,0.4c0.536,0.475,1.084,0.949,1.644,1.425l0.41,0.347
		c1.439,1.208,2.952,2.415,4.477,3.572l0.063,0.045c0.026,0.022,0.053,0.042,0.08,0.063c0.734,0.557,1.486,1.111,2.245,1.662
		l0.412,0.295c0.713,0.514,1.439,1.027,2.169,1.53l0.357,0.247c2.609,1.793,5.4,3.586,8.311,5.334l0.286,0.172
		c0.892,0.534,1.799,1.066,2.69,1.579l0.306,0.175c3.075,1.763,6.311,3.498,9.601,5.151l0.227,0.112
		c1.053,0.528,2.121,1.052,3.204,1.572c0.008,0.004,0.093,0.044,0.101,0.048l0.126,0.061c3.486,1.669,7.119,3.294,10.812,4.832
		l0.169,0.07c1.175,0.488,2.362,0.971,3.578,1.453l0.258,0.103c25.113,9.932,52.846,16.018,80.208,17.598l0.249,0.016
		c2.002,0.113,4.071,0.205,6.148,0.273l0.961,0.027c2.351,0.068,4.306,0.104,6.15,0.111l1.117,0.003h0.002
		c52.836,0,93.144-16.237,112.465-25.915c29.802-14.929,48.354-32.921,48.416-46.954c0.002-0.486-0.02-0.981-0.065-1.478
		C328.639,124.398,328.658,124.01,328.659,123.634z"/>
	<g>
		<g>
			<path style="fill:#9BAAAC;" d="M323.817,126.265c-0.102,23.083-70.45,68.424-157.129,68.04
				C80.012,193.919,9.827,147.958,9.93,124.873c0.102-23.084,70.451-41.487,157.13-41.101
				C253.736,84.154,323.92,103.179,323.817,126.265z"/>
			<path style="fill:#C2D3D5;" d="M60.538,168.489c-10.833-6.758-20.58-15.522-27.414-26.404
				c-6.449-10.266-8.944-21.882-5.915-33.759c0.243-0.946,0.52-1.887,0.815-2.825c-11.52,5.76-18.065,12.35-18.095,19.372
				c-0.064,14.368,27.106,37.598,68.532,53.185C72.329,175.154,66.29,172.077,60.538,168.489z"/>
			<path style="fill:#9BAAAC;" d="M258.289,91.967c0.659,5.412,1.328,10.807,0.665,16.304c-0.94,7.797-2.965,15.788-6.008,23.023
				c-4.926,11.717-13.722,21.292-23.714,28.938c-10.486,8.024-22.162,14.72-34.287,19.932c-12.512,5.378-25.682,9.436-39.185,11.364
				c-4.958,0.708-9.961,1.185-14.971,1.305c8.425,0.913,17.074,1.433,25.898,1.473c86.679,0.384,157.026-44.957,157.129-68.04
				C323.88,112.246,298.02,99.726,258.289,91.967z"/>
		</g>
		<path style="fill:#C2D3D5;" d="M323.81,123.612c-0.097,21.62-70.44,38.834-157.117,38.45
			C80.014,161.677,9.825,143.842,9.92,122.221c0.097-21.621,70.44-38.835,157.119-38.448
			C253.718,84.154,323.904,101.993,323.81,123.612z"/>
		<path style="fill:#C2D3D5;" d="M323.81,123.612c-0.097,21.62-70.44,38.834-157.117,38.45
			C80.014,161.677,9.825,143.842,9.92,122.221c0.097-21.621,70.44-38.835,157.119-38.448
			C253.718,84.154,323.904,101.993,323.81,123.612z"/>
		<path style="fill:#C2D3D5;" d="M292.878,115.752c-0.076,17.354-56.541,31.172-126.117,30.863
			c-69.577-0.309-125.916-14.626-125.841-31.98c0.078-17.355,56.542-31.172,126.119-30.862
			C236.615,84.079,292.955,98.397,292.878,115.752z"/>
		<g style="opacity:0.5;">
			<path style="fill:#C2D3D5;" d="M21.035,126.044c0.089-20.1,71.585-36.075,159.691-35.684c48.935,0.216,92.69,5.437,121.919,13.48
				c-27.145-11.764-77.691-19.813-135.607-20.068C80.36,83.386,10.017,100.6,9.92,122.221c-0.074,17.067,43.653,31.772,104.711,37.4
				C59.371,153.66,20.969,140.792,21.035,126.044z"/>
		</g>
		<g>
			<g>
				<path style="opacity:0.8;fill:#88C8E3;" d="M168.881,7.977c-54.686,0-99.015,44.831-99.015,100.134
					c0,2.503,0.093,4.981,0.269,7.438c0,0,0.019,0,0.03,0c-0.004,0.975,0.324,1.371,0.282,1.391
					c3.838,10.219,46.765,17.748,98.987,17.048c52.46-0.704,95.208-9.459,98.277-19.837c0.037-0.661,0.071-1.327,0.097-1.991
					c0.053-1.345,0.087-2.692,0.087-4.048C267.897,52.809,223.568,7.977,168.881,7.977z"/>
				<path style="opacity:0.4;fill:#88C8E3;" d="M224.58,25.316c3.364,7.027,5.468,14.451,6.059,22.074
					c0.978,12.598,0.51,31.322-14.563,38.819c-6.867,3.412-14.967,4.444-22.882,4.867c-13.088,0.698-26.327,0.556-39.43,0.312
					c-10.499-0.194-21.141-0.366-31.606-1.13c-8.148-0.594-17.245-1.643-23.948-5.794C83.992,75.65,85.534,59.46,91.354,47.303
					c0.649-1.359,1.358-2.706,2.092-4.048c-14.704,17.473-23.58,40.117-23.58,64.856c0,2.503,0.093,4.981,0.269,7.438
					c0,0,0.019,0,0.03,0c-0.004,0.975,0.324,1.371,0.282,1.391c3.838,10.219,46.765,17.748,98.987,17.048
					c52.46-0.704,95.208-9.459,98.277-19.837c0.037-0.661,0.071-1.327,0.097-1.991c0.053-1.345,0.087-2.692,0.087-4.048
					C267.897,73.699,250.729,43.342,224.58,25.316z"/>
			</g>
			<path style="fill:#444A72;" d="M262.415,113.489c0.023,9.929-42.742,18.069-95.511,18.18
				c-52.771,0.113-95.567-7.843-95.59-17.772c-0.021-9.93,42.74-18.071,95.513-18.181
				C219.597,95.601,262.397,103.56,262.415,113.489z"/>
			<path style="fill:#212441;" d="M245.702,116.671c0.019,8.191-35.263,14.906-78.798,14.998
				c-43.538,0.092-78.845-6.47-78.863-14.661c-0.018-8.193,35.263-14.908,78.799-15
				C210.376,101.914,245.684,108.479,245.702,116.671z"/>
			<g style="opacity:0.6;">
				<path style="fill:#2B8CA8;" d="M102.085,111.171l9.232,6.27c1.843-0.947,3.701-1.708,5.513-2.321
					c-2.741-2.047-5.617-4.204-8.262-6.19C106.45,109.555,104.27,110.294,102.085,111.171z"/>
				<path style="fill:#E84B9B;" d="M127.665,117.701c2.571-0.554,4.247-0.716,4.247-0.716l-4.582-4.104
					c-1.352,0.136-2.882,0.345-4.534,0.666C124.509,115.014,126.17,116.432,127.665,117.701z"/>
				<path style="fill:#E84B9B;" d="M115.427,107.222c-2.148,0.442-4.462,1.003-6.858,1.707c2.645,1.986,5.521,4.144,8.262,6.19
					c2.08-0.701,4.098-1.209,5.966-1.571C120.335,111.442,117.766,109.235,115.427,107.222z"/>
				<path style="fill:#5AC6D0;" d="M116.83,115.119c1.923,1.436,3.777,2.815,5.438,4.046c2.008-0.661,3.863-1.135,5.397-1.464
					c-1.495-1.27-3.156-2.688-4.869-4.153C120.928,113.91,118.91,114.418,116.83,115.119z"/>
				<path style="fill:#E84B9B;" d="M115.427,107.222c1.665-0.342,3.228-0.612,4.654-0.829l-3.273-2.93
					c-1.497,0.139-3.2,0.332-5.045,0.601C112.872,105.021,114.111,106.09,115.427,107.222z"/>
				<path style="fill:#5AC6D0;" d="M122.796,113.548c1.652-0.321,3.183-0.53,4.534-0.666l-7.249-6.489
					c-1.427,0.217-2.989,0.487-4.654,0.829C117.766,109.235,120.335,111.442,122.796,113.548z"/>
				<path style="fill:#F0BFD9;" d="M88.19,111.42c-2.237,1.23-4.378,2.646-6.353,4.267l7.338,2.738
					c1.822-1.42,3.743-2.683,5.722-3.807L88.19,111.42z"/>
				<path style="fill:#2B8CA8;" d="M102.085,111.171l-5.234-3.553c-2.937,1.02-5.871,2.269-8.66,3.802l6.707,3.198
					C97.244,113.283,99.666,112.143,102.085,111.171z"/>
				<path style="fill:#E84B9B;" d="M108.568,108.929c-1.624-1.218-3.156-2.371-4.519-3.396c-2.346,0.557-4.772,1.243-7.199,2.086
					l5.234,3.553C104.27,110.294,106.45,109.555,108.568,108.929z"/>
				<path style="fill:#5AC6D0;" d="M89.176,118.425l13.675,5.104c1.235-1.225,2.535-2.31,3.87-3.275l-11.823-5.635
					C92.919,115.742,90.998,117.005,89.176,118.425z"/>
				<path style="fill:#E84B9B;" d="M94.897,114.618l11.823,5.635c1.497-1.083,3.041-2.014,4.597-2.813l-9.232-6.27
					C99.666,112.143,97.244,113.283,94.897,114.618z"/>
				<path style="fill:#F0BFD9;" d="M115.427,107.222c-1.315-1.132-2.555-2.2-3.664-3.158c-2.376,0.349-4.988,0.821-7.713,1.469
					c1.362,1.025,2.895,2.179,4.519,3.396C110.965,108.225,113.278,107.664,115.427,107.222z"/>
				<path style="fill:#E84B9B;" d="M111.763,104.063c-1.078-0.928-2.033-1.753-2.807-2.42c-2.3,0.236-5.192,0.621-8.407,1.252
					c0.934,0.705,2.129,1.605,3.501,2.637C106.774,104.885,109.387,104.412,111.763,104.063z"/>
				<path style="fill:#EF905B;" d="M102.851,123.528l6.619,2.471c1.179-0.994,2.423-1.88,3.7-2.672l-6.449-3.074
					C105.386,121.219,104.086,122.304,102.851,123.528z"/>
				<path style="fill:#E84B9B;" d="M106.721,120.253l6.449,3.074c1.247-0.772,2.521-1.454,3.793-2.054l-5.646-3.833
					C109.762,118.239,108.218,119.17,106.721,120.253z"/>
				<path style="fill:#EF905B;" d="M116.83,115.119c-1.812,0.613-3.67,1.374-5.513,2.321l5.646,3.833
					c1.812-0.856,3.612-1.551,5.305-2.108C120.607,117.935,118.753,116.555,116.83,115.119z"/>
				<path style="fill:#E84B9B;" d="M96.851,107.618l-4.117-2.797c-3.348,1.008-6.786,2.3-10.088,3.956l5.545,2.643
					C90.979,109.887,93.914,108.638,96.851,107.618z"/>
				<path style="fill:#F0BFD9;" d="M116.808,103.463l-2.44-2.185c0,0-2.086,0.026-5.411,0.365c0.773,0.667,1.729,1.492,2.807,2.42
					C113.607,103.795,115.311,103.602,116.808,103.463z"/>
				<path style="fill:#5AC6D0;" d="M104.05,105.532c-1.372-1.031-2.567-1.932-3.501-2.637c-2.459,0.483-5.106,1.112-7.815,1.926
					l4.117,2.797C99.277,106.775,101.704,106.089,104.05,105.532z"/>
				<path style="fill:#2B8CA8;" d="M88.19,111.42l-5.545-2.643c-2.537,1.273-4.988,2.762-7.255,4.503l6.447,2.406
					C83.813,114.065,85.953,112.65,88.19,111.42z"/>
			</g>
			<g style="opacity:0.5;">
				<path style="fill:#2B8CA8;" d="M230.375,110.279l-9.232,6.268c-1.844-0.946-3.702-1.708-5.516-2.319
					c2.741-2.049,5.617-4.204,8.264-6.19C226.01,108.662,228.19,109.401,230.375,110.279z"/>
				<path style="fill:#E84B9B;" d="M204.793,116.808c-2.568-0.554-4.247-0.714-4.247-0.714l4.585-4.104
					c1.351,0.135,2.881,0.345,4.533,0.665C207.949,114.12,206.29,115.538,204.793,116.808z"/>
				<path style="fill:#E84B9B;" d="M217.032,106.33c2.15,0.441,4.463,1.001,6.859,1.707c-2.646,1.986-5.523,4.142-8.264,6.19
					c-2.078-0.703-4.098-1.21-5.964-1.573C212.125,110.549,214.694,108.343,217.032,106.33z"/>
				<path style="fill:#5AC6D0;" d="M215.628,114.228c-1.921,1.434-3.775,2.813-5.438,4.045c-2.006-0.662-3.86-1.135-5.398-1.465
					c1.497-1.27,3.156-2.688,4.871-4.153C211.53,113.018,213.55,113.524,215.628,114.228z"/>
				<path style="fill:#E84B9B;" d="M217.032,106.33c-1.664-0.342-3.227-0.614-4.653-0.83l3.273-2.93
					c1.497,0.138,3.2,0.332,5.046,0.602C219.588,104.128,218.347,105.197,217.032,106.33z"/>
				<path style="fill:#5AC6D0;" d="M209.664,112.654c-1.652-0.32-3.183-0.53-4.533-0.665l7.248-6.489
					c1.427,0.216,2.989,0.488,4.653,0.83C214.694,108.343,212.125,110.549,209.664,112.654z"/>
				<path style="fill:#F0BFD9;" d="M244.27,110.527c2.237,1.23,4.378,2.646,6.352,4.267l-7.338,2.738
					c-1.822-1.42-3.743-2.684-5.722-3.807L244.27,110.527z"/>
				<path style="fill:#2B8CA8;" d="M230.375,110.279l5.234-3.555c2.937,1.021,5.871,2.269,8.66,3.803l-6.707,3.198
					C235.216,112.39,232.795,111.25,230.375,110.279z"/>
				<path style="fill:#E84B9B;" d="M223.892,108.037c1.624-1.219,3.156-2.372,4.518-3.398c2.346,0.558,4.773,1.244,7.199,2.086
					l-5.234,3.555C228.19,109.401,226.01,108.662,223.892,108.037z"/>
				<path style="fill:#5AC6D0;" d="M243.284,117.532l-13.675,5.103c-1.236-1.224-2.534-2.31-3.87-3.275l11.823-5.634
					C239.541,114.849,241.462,116.112,243.284,117.532z"/>
				<path style="fill:#E84B9B;" d="M237.563,113.726l-11.823,5.634c-1.497-1.083-3.043-2.014-4.596-2.813l9.232-6.268
					C232.795,111.25,235.216,112.39,237.563,113.726z"/>
				<path style="fill:#F0BFD9;" d="M217.032,106.33c1.314-1.133,2.556-2.202,3.666-3.158c2.375,0.348,4.988,0.821,7.712,1.467
					c-1.362,1.026-2.895,2.18-4.518,3.398C221.495,107.331,219.183,106.771,217.032,106.33z"/>
				<path style="fill:#E84B9B;" d="M220.698,103.172c1.077-0.93,2.032-1.755,2.806-2.422c2.3,0.236,5.192,0.622,8.406,1.254
					c-0.933,0.703-2.128,1.604-3.5,2.635C225.686,103.993,223.073,103.52,220.698,103.172z"/>
				<path style="fill:#EF905B;" d="M229.609,122.635l-6.619,2.471c-1.179-0.992-2.425-1.878-3.7-2.671l6.449-3.075
					C227.075,120.325,228.373,121.411,229.609,122.635z"/>
				<path style="fill:#E84B9B;" d="M225.739,119.359l-6.449,3.075c-1.246-0.772-2.521-1.454-3.793-2.054l5.646-3.834
					C222.696,117.346,224.242,118.276,225.739,119.359z"/>
				<path style="fill:#EF905B;" d="M215.628,114.228c1.814,0.611,3.672,1.373,5.516,2.319l-5.646,3.834
					c-1.813-0.857-3.612-1.552-5.307-2.108C211.852,117.041,213.707,115.661,215.628,114.228z"/>
				<path style="fill:#E84B9B;" d="M235.609,106.725l4.117-2.795c3.346,1.006,6.786,2.298,10.088,3.954l-5.545,2.644
					C241.48,108.993,238.546,107.745,235.609,106.725z"/>
				<path style="fill:#F0BFD9;" d="M215.652,102.57l2.44-2.185c0,0,2.086,0.026,5.411,0.365c-0.774,0.667-1.729,1.492-2.806,2.422
					C218.852,102.902,217.149,102.708,215.652,102.57z"/>
				<path style="fill:#5AC6D0;" d="M228.41,104.639c1.372-1.031,2.567-1.932,3.5-2.635c2.461,0.482,5.107,1.111,7.816,1.926
					l-4.117,2.795C233.183,105.883,230.756,105.196,228.41,104.639z"/>
				<path style="fill:#2B8CA8;" d="M244.27,110.527l5.545-2.644c2.535,1.273,4.988,2.762,7.255,4.504l-6.447,2.406
					C248.647,113.173,246.507,111.758,244.27,110.527z"/>
			</g>
			<g>
				<path style="fill:#EF905B;" d="M129.389,100.823c0,0.619-0.502,1.123-1.121,1.123c-0.619,0-1.122-0.504-1.122-1.123
					c0-0.618,0.503-1.12,1.122-1.12C128.887,99.703,129.389,100.205,129.389,100.823z"/>
				<path style="fill:#EF905B;" d="M136.503,100.155c0,0.62-0.502,1.123-1.121,1.123c-0.62,0-1.122-0.503-1.122-1.123
					c0-0.619,0.502-1.121,1.122-1.121C136.001,99.034,136.503,99.536,136.503,100.155z"/>
				<path style="fill:#EF905B;" d="M131.352,103.807c0,0.618-0.502,1.122-1.121,1.122c-0.62,0-1.122-0.504-1.122-1.122
					c0-0.62,0.502-1.122,1.122-1.122C130.85,102.685,131.352,103.187,131.352,103.807z"/>
				<path style="fill:#EF905B;" d="M133.29,107.037c0,0.619-0.502,1.121-1.122,1.121c-0.619,0-1.121-0.502-1.121-1.121
					c0-0.62,0.502-1.122,1.121-1.122C132.788,105.915,133.29,106.417,133.29,107.037z"/>
			</g>
			<g>
				<path style="fill:#EF905B;" d="M204.767,100.823c0,0.619,0.502,1.123,1.122,1.123c0.619,0,1.123-0.504,1.123-1.123
					c0-0.618-0.504-1.12-1.123-1.12C205.268,99.703,204.767,100.205,204.767,100.823z"/>
				<path style="fill:#EF905B;" d="M197.652,100.155c0,0.62,0.503,1.123,1.122,1.123c0.619,0,1.123-0.503,1.123-1.123
					c0-0.619-0.504-1.121-1.123-1.121C198.155,99.034,197.652,99.536,197.652,100.155z"/>
				<path style="fill:#EF905B;" d="M202.804,103.807c0,0.618,0.502,1.122,1.122,1.122c0.619,0,1.123-0.504,1.123-1.122
					c0-0.62-0.504-1.122-1.123-1.122C203.306,102.685,202.804,103.187,202.804,103.807z"/>
				<path style="fill:#EF905B;" d="M200.866,107.037c0,0.619,0.502,1.121,1.121,1.121c0.62,0,1.122-0.502,1.122-1.121
					c0-0.62-0.502-1.122-1.122-1.122C201.368,105.915,200.866,106.417,200.866,107.037z"/>
			</g>
			<g>
				<path style="opacity:0.4;fill:#88C8E3;" d="M168.881,7.977c-54.686,0-99.015,44.831-99.015,100.134
					c0,2.503,0.093,4.981,0.269,7.438c0,0,0.019,0,0.03,0c-0.004,0.975,0.324,1.371,0.282,1.391
					c3.838,10.219,46.765,17.748,98.987,17.048c52.46-0.704,95.208-9.459,98.277-19.837c0.037-0.661,0.071-1.327,0.097-1.991
					c0.053-1.345,0.087-2.692,0.087-4.048C267.897,52.809,223.568,7.977,168.881,7.977z M231.844,106.212
					c-11.466,13.755-39.882,16.593-61.256,17.103c-24.072,0.573-51.176-2.108-70.829-12.186
					c-8.848-4.536-16.343-10.467-18.53-17.994c-1.575-5.407-0.931-10.733,0.76-15.98c1.275-12.936,9.139-25.592,18.545-35.711
					c11.24-12.089,26.664-20.61,44.604-24.834c16.158-3.804,34.933-5.918,50.699,0.08c0.341,0.129,0.667,0.274,1,0.41
					c0.822,0.297,1.63,0.611,2.414,0.958c20.042,8.86,29.45,25.861,34.878,40.817C239.459,73.567,243.425,92.333,231.844,106.212z"
					/>
				<path style="opacity:0.9;fill:#FFFFFF;" d="M86.747,76.498c-1.368,4.18-2.543,8.633-3.463,13.389c0,0,4.31,10.428,14.794,16.646
					c0,0,0.18-7.258,2.287-17.982C95.528,84.751,90.958,80.729,86.747,76.498z"/>
				<path style="opacity:0.9;fill:#FFFFFF;" d="M89.634,68.737c4.244,3.125,8.755,5.989,13.354,8.767
					c5.289-18.956,16.257-43.126,38.968-59.427C141.955,18.077,106.488,28.594,89.634,68.737z"/>
			</g>
		</g>
		<g>
			<g>
				<path style="fill:#6D6E71;" d="M21.918,121.874c2.41,0,4.464,0.724,5.28,1.742c0.244-0.254,0.383-0.527,0.383-0.814
					c0-1.252-2.535-2.267-5.663-2.267c-3.126,0-5.663,1.015-5.663,2.267c0,0.286,0.141,0.56,0.383,0.814
					C17.456,122.598,19.51,121.874,21.918,121.874z"/>
				<path style="fill:#00874C;" d="M21.918,125.068c2.41,0,4.464-0.604,5.28-1.452c-0.816-1.019-2.87-1.742-5.28-1.742
					c-2.408,0-4.462,0.724-5.28,1.742C17.456,124.465,19.51,125.068,21.918,125.068z"/>
				<path style="fill:#00874C;" d="M23.168,124.68c-1.464,0.013-3.856,0.097-5.027-1.075c-0.298-0.297-0.294-0.64-0.157-0.96
					c-0.584,0.272-1.048,0.602-1.346,0.972c0.818,0.849,2.872,1.452,5.28,1.452c1.59,0,3.016-0.266,4.043-0.688
					C25.06,124.432,24.028,124.672,23.168,124.68z"/>
			</g>
			<path style="fill:#C2E1B7;" d="M19.364,123.196c0,0.152-0.228,0.275-0.508,0.275s-0.508-0.123-0.508-0.275
				c0-0.154,0.227-0.277,0.508-0.277S19.364,123.042,19.364,123.196z"/>
			<path style="fill:#C2E1B7;" d="M20.396,122.585c0,0.119-0.178,0.218-0.399,0.218c-0.22,0-0.4-0.099-0.4-0.218
				c0-0.121,0.181-0.219,0.4-0.219C20.219,122.366,20.396,122.464,20.396,122.585z"/>
			<path style="fill:#FFFFFF;" d="M16.638,123.616c0,0,0.145,0.101,0.398,0.275c0.134,0.066,0.295,0.146,0.482,0.239
				c0.201,0.065,0.419,0.157,0.665,0.231c0.25,0.064,0.512,0.155,0.806,0.2c0.29,0.063,0.597,0.108,0.917,0.148
				c0.316,0.056,0.651,0.061,0.988,0.095c0.336,0.028,0.681,0.021,1.023,0.034c0.333-0.014,0.699-0.008,1.03-0.035
				c0.334-0.034,0.665-0.039,0.982-0.094c0.322-0.04,0.629-0.087,0.917-0.149c0.294-0.044,0.558-0.135,0.808-0.199
				c0.246-0.075,0.462-0.167,0.663-0.231c0.189-0.094,0.352-0.175,0.488-0.241c0.25-0.174,0.393-0.273,0.393-0.273
				s-0.118,0.127-0.341,0.346c-0.129,0.089-0.284,0.197-0.463,0.32c-0.191,0.097-0.403,0.228-0.653,0.322
				c-0.25,0.09-0.518,0.209-0.813,0.282c-0.294,0.091-0.606,0.173-0.935,0.223c-0.325,0.068-0.672,0.102-1.024,0.138
				c-0.352,0.033-0.687,0.033-1.052,0.051c-0.709-0.019-1.419-0.059-2.074-0.189c-0.33-0.05-0.643-0.132-0.935-0.223
				c-0.297-0.073-0.564-0.191-0.814-0.281c-0.248-0.095-0.46-0.226-0.653-0.322c-0.179-0.125-0.336-0.232-0.465-0.323
				C16.757,123.745,16.638,123.616,16.638,123.616z"/>
		</g>
		<g>
			<g>
				<path style="fill:#6D6E71;" d="M167.118,156.595c2.41,0,4.464,0.723,5.28,1.742c0.245-0.254,0.383-0.528,0.383-0.815
					c0-1.252-2.535-2.266-5.663-2.266c-3.126,0-5.66,1.014-5.66,2.266c0,0.287,0.138,0.561,0.383,0.815
					C162.657,157.317,164.711,156.595,167.118,156.595z"/>
				<path style="fill:#00874C;" d="M167.118,159.787c2.41,0,4.464-0.602,5.28-1.45c-0.816-1.02-2.87-1.742-5.28-1.742
					c-2.407,0-4.461,0.723-5.277,1.742C162.657,159.185,164.711,159.787,167.118,159.787z"/>
				<path style="fill:#00874C;" d="M168.369,159.398c-1.465,0.013-3.855,0.098-5.028-1.074c-0.296-0.297-0.294-0.64-0.157-0.96
					c-0.581,0.271-1.046,0.601-1.343,0.973c0.816,0.848,2.87,1.45,5.277,1.45c1.592,0,3.017-0.266,4.043-0.688
					C170.262,159.15,169.23,159.39,168.369,159.398z"/>
			</g>
			<path style="fill:#C2E1B7;" d="M164.564,157.915c0,0.152-0.227,0.276-0.508,0.276c-0.28,0-0.507-0.124-0.507-0.276
				c0-0.152,0.227-0.277,0.507-0.277C164.338,157.638,164.564,157.763,164.564,157.915z"/>
			<path style="fill:#C2E1B7;" d="M165.6,157.303c0,0.122-0.181,0.218-0.4,0.218c-0.222,0-0.399-0.096-0.399-0.218
				c0-0.119,0.178-0.217,0.399-0.217C165.419,157.086,165.6,157.184,165.6,157.303z"/>
			<path style="fill:#FFFFFF;" d="M161.841,158.337c0,0,0.143,0.099,0.395,0.274c0.135,0.065,0.298,0.146,0.483,0.238
				c0.202,0.064,0.419,0.156,0.665,0.232c0.25,0.064,0.512,0.155,0.807,0.2c0.288,0.063,0.595,0.107,0.915,0.148
				c0.316,0.055,0.652,0.061,0.989,0.095c0.335,0.027,0.68,0.021,1.022,0.033c0.334-0.013,0.701-0.006,1.031-0.033
				c0.333-0.036,0.665-0.04,0.983-0.096c0.32-0.04,0.627-0.085,0.915-0.146c0.293-0.046,0.557-0.136,0.807-0.201
				c0.246-0.075,0.463-0.167,0.663-0.232c0.189-0.094,0.353-0.173,0.489-0.24c0.25-0.173,0.392-0.271,0.392-0.271
				s-0.115,0.126-0.341,0.345c-0.129,0.089-0.284,0.196-0.462,0.32c-0.191,0.098-0.404,0.227-0.652,0.322
				c-0.25,0.091-0.518,0.209-0.814,0.281c-0.292,0.093-0.605,0.172-0.934,0.222c-0.326,0.07-0.673,0.104-1.023,0.14
				c-0.354,0.033-0.688,0.032-1.054,0.05c-0.708-0.019-1.419-0.059-2.074-0.189c-0.329-0.05-0.642-0.13-0.934-0.222
				c-0.296-0.072-0.563-0.192-0.814-0.282c-0.249-0.095-0.461-0.226-0.652-0.322c-0.18-0.124-0.337-0.233-0.466-0.321
				C161.96,158.464,161.841,158.337,161.841,158.337z"/>
		</g>
		<g>
			<g>
				<path style="fill:#6D6E71;" d="M312.321,121.874c2.408,0,4.462,0.724,5.28,1.742c0.242-0.254,0.383-0.527,0.383-0.814
					c0-1.252-2.537-2.267-5.663-2.267c-3.128,0-5.663,1.015-5.663,2.267c0,0.286,0.139,0.56,0.383,0.814
					C307.857,122.598,309.911,121.874,312.321,121.874z"/>
				<path style="fill:#00874C;" d="M312.321,125.068c2.408,0,4.462-0.604,5.28-1.452c-0.818-1.019-2.872-1.742-5.28-1.742
					c-2.41,0-4.464,0.724-5.28,1.742C307.857,124.465,309.911,125.068,312.321,125.068z"/>
				<path style="fill:#00874C;" d="M313.571,124.68c-1.466,0.013-3.857,0.097-5.029-1.075c-0.296-0.297-0.294-0.64-0.157-0.96
					c-0.582,0.272-1.046,0.602-1.344,0.972c0.816,0.849,2.87,1.452,5.28,1.452c1.59,0,3.014-0.266,4.041-0.688
					C315.462,124.432,314.432,124.672,313.571,124.68z"/>
			</g>
			<path style="fill:#C2E1B7;" d="M309.766,123.196c0,0.152-0.226,0.275-0.508,0.275c-0.28,0-0.508-0.123-0.508-0.275
				c0-0.154,0.228-0.277,0.508-0.277C309.54,122.919,309.766,123.042,309.766,123.196z"/>
			<path style="fill:#C2E1B7;" d="M310.8,122.585c0,0.119-0.178,0.218-0.399,0.218c-0.222,0-0.4-0.099-0.4-0.218
				c0-0.121,0.179-0.219,0.4-0.219C310.622,122.366,310.8,122.464,310.8,122.585z"/>
			<path style="fill:#FFFFFF;" d="M307.041,123.616c0,0,0.145,0.101,0.397,0.275c0.134,0.066,0.297,0.146,0.484,0.239
				c0.201,0.065,0.417,0.157,0.663,0.231c0.25,0.064,0.514,0.155,0.808,0.2c0.288,0.063,0.595,0.108,0.917,0.148
				c0.316,0.056,0.65,0.061,0.986,0.095c0.338,0.028,0.683,0.021,1.025,0.034c0.331-0.014,0.699-0.008,1.03-0.035
				c0.334-0.034,0.663-0.039,0.982-0.094c0.32-0.04,0.627-0.087,0.917-0.149c0.292-0.044,0.556-0.135,0.806-0.199
				c0.246-0.075,0.462-0.167,0.665-0.231c0.188-0.094,0.352-0.175,0.486-0.241c0.25-0.174,0.395-0.273,0.395-0.273
				s-0.118,0.127-0.343,0.346c-0.127,0.089-0.283,0.197-0.461,0.32c-0.193,0.097-0.405,0.228-0.653,0.322
				c-0.25,0.09-0.518,0.209-0.815,0.282c-0.292,0.091-0.604,0.173-0.934,0.223c-0.325,0.068-0.673,0.102-1.023,0.138
				c-0.352,0.033-0.688,0.033-1.052,0.051c-0.711-0.019-1.421-0.059-2.076-0.189c-0.328-0.05-0.641-0.132-0.935-0.223
				c-0.295-0.073-0.563-0.191-0.813-0.281c-0.25-0.095-0.462-0.226-0.653-0.322c-0.181-0.125-0.336-0.232-0.465-0.323
				C307.16,123.745,307.041,123.616,307.041,123.616z"/>
		</g>
	</g>
</g>
</svg>
